<?xml version="1.0" standalone="no"?>
<!DOCTYPE svg PUBLIC "-//W3C//DTD SVG 1.1//EN" "http://www.w3.org/Graphics/SVG/1.1/DTD/svg11.dtd" >
<svg xmlns="http://www.w3.org/2000/svg">
<metadata></metadata>
<defs>
<font id="camcorder_monospacedregular" horiz-adv-x="1228" >
<font-face units-per-em="2048" ascent="1741" descent="-307" />
<missing-glyph horiz-adv-x="500" />
<glyph horiz-adv-x="2048" />
<glyph horiz-adv-x="2048" />
<glyph unicode="&#xd;" horiz-adv-x="2048" />
<glyph unicode=" " />
<glyph unicode="!" d="M410 -102v1638h409v-1638h-409zM512 0h205v205h-205v-205zM512 410h205v1024h-205v-1024z" />
<glyph unicode="&#x22;" d="M205 922v614h819v-614h-819zM307 1024h205v410h-205v-410zM717 1024h205v410h-205v-410z" />
<glyph unicode="#" d="M0 307v819h205v205h819v-205h205v-819h-205v-205h-819v205h-205zM102 410h205v-205h205v205h205v-205h205v205h204v204h-204v205h204v205h-204v205h-205v-205h-205v205h-205v-205h-205v-205h205v-205h-205v-204zM512 614v205h205v-205h-205z" />
<glyph unicode="$" d="M0 102v410h205v102h-103v103h-102v614h102v103h103v102h205v205h409v-205h205v-102h102v-103h103v-409h-205v-103h102v-102h103v-615h-103v-102h-102v-102h-205v-205h-409v205h-205v102h-103v102h-102zM102 205h103v-103h102v-102h205v-205h205v205h205v102h102v103h102 v409h-102v103h-102v102h-205v410h102v-103h103v-102h204v205h-102v102h-102v103h-205v204h-205v-204h-205v-103h-102v-102h-103v-410h103v-102h102v-103h205v-409h-102v102h-103v103h-205v-205zM307 922v204h103v103h102v-410h-102v103h-103zM717 205v409h102v-102h103v-205 h-103v-102h-102z" />
<glyph unicode="%" d="M0 -102v614h102v102h103v103h102v102h103v103h-410v614h614v-410h103v103h102v307h410v-614h-103v-103h-102v-102h-102v-103h-103v-102h410v-614h-615v409h-102v-102h-102v-307h-410zM102 0h205v307h103v103h102v102h102v102h103v103h102v102h103v103h102v102h102v410 h-204v-308h-103v-102h-102v-102h-103v-103h-102v-102h-102v-103h-103v-102h-102v-102h-103v-410zM102 1024h410v410h-410v-410zM717 0h409v410h-409v-410z" />
<glyph unicode="&#x26;" d="M0 102v615h102v102h-102v512h102v103h103v102h512v-102h102v-103h103v-512h307v-409h-103v-103h103v-409h-1024v102h-103v102h-102zM102 205h103v-103h102v-102h410v102h205v-102h204v205h-102v102h-102v103h102v102h102v205h-204v-103h-205v103h-103v102h103v103h102 v307h-102v102h-103v103h-307v-103h-102v-102h-103v-307h103v-103h102v-102h-102v-103h-103v-409zM307 307v205h103v102h102v-102h102v-102h103v-103h-103v-102h-204v102h-103zM307 1024v102h103v103h102v-103h102v-102h-102v-102h-102v102h-103z" />
<glyph unicode="'" d="M410 922v614h409v-614h-409zM512 1024h205v410h-205v-410z" />
<glyph unicode="(" d="M205 0v1434h102v102h103v102h102v103h512v-410h-205v-102h-102v-103h-103v-819h103v-102h102v-103h205v-409h-512v102h-102v103h-103v102h-102zM307 102h103v-102h102v-102h102v-103h308v205h-205v102h-103v103h-102v1024h102v102h103v103h205v204h-308v-102h-102v-102 h-102v-103h-103v-1229z" />
<glyph unicode=")" d="M205 102h205v103h102v102h102v819h-102v103h-102v102h-205v410h512v-103h102v-102h103v-102h102v-1434h-102v-102h-103v-103h-102v-102h-512v409zM307 0v-205h307v103h103v102h102v102h103v1229h-103v103h-102v102h-103v102h-307v-204h205v-103h102v-102h103v-1024h-103 v-103h-102v-102h-205z" />
<glyph unicode="*" d="M0 512v410h102v307h308v102h409v-102h307v-307h103v-410h-103v-307h-307v-103h-409v103h-308v307h-102zM102 614h205v-102h-102v-205h205v103h102v-205h205v205h102v-103h205v205h-102v102h204v205h-204v103h102v204h-205v-102h-102v205h-205v-205h-102v102h-205v-204 h102v-103h-205v-205z" />
<glyph unicode="+" d="M102 512v410h308v307h409v-307h307v-410h-307v-307h-409v307h-308zM205 614h307v-307h205v307h307v205h-307v307h-205v-307h-307v-205z" />
<glyph unicode="," d="M410 307h409v-614h-409v614zM512 205v-410h205v410h-205z" />
<glyph unicode="-" d="M102 512v410h1024v-410h-1024zM205 614h819v205h-819v-205z" />
<glyph unicode="." d="M410 -102v409h409v-409h-409zM512 0h205v205h-205v-205z" />
<glyph unicode="/" d="M0 -102v614h102v102h103v103h102v102h103v103h102v102h102v102h103v103h102v307h410v-614h-103v-103h-102v-102h-102v-103h-103v-102h-102v-102h-103v-103h-102v-102h-102v-307h-410zM102 0h205v307h103v103h102v102h102v102h103v103h102v102h103v103h102v102h102v410 h-204v-308h-103v-102h-102v-102h-103v-103h-102v-102h-102v-103h-103v-102h-102v-102h-103v-410z" />
<glyph unicode="0" d="M0 102v1229h102v103h103v102h819v-102h102v-103h103v-1229h-103v-102h-102v-102h-819v102h-103v102h-102zM102 205h103v-103h102v-102h615v102h102v103h102v1024h-102v102h-102v103h-615v-103h-102v-102h-103v-1024zM307 614v512h103v103h409v-205h-102v-102h-103v-103 h-102v-102h-102v-103h-103zM410 205v205h102v102h102v102h103v103h102v102h103v-512h-103v-102h-409zM410 922h102v102h102v102h-102v-102h-102v-102zM614 307h103v103h102v102h-102v-102h-103v-103z" />
<glyph unicode="1" d="M205 -102v409h205v615h-205v409h102v103h103v102h409v-1229h205v-409h-819zM307 0h615v205h-205v1229h-205v-103h-102v-102h-103v-205h205v-819h-205v-205z" />
<glyph unicode="2" d="M0 -102v409h102v103h103v102h102v102h103v103h102v102h102v103h103v204h-205v-102h-102v-102h-410v409h102v103h103v102h819v-102h102v-103h103v-614h-103v-103h-102v-102h-102v-102h-103v-103h410v-409h-1229zM102 0h1024v205h-614v102h102v103h103v102h102v102h103v103 h102v102h102v410h-102v102h-102v103h-615v-103h-102v-102h-103v-205h205v102h103v103h409v-103h103v-204h-103v-103h-102v-102h-103v-103h-102v-102h-102v-102h-103v-103h-102v-102h-103v-205z" />
<glyph unicode="3" d="M0 102v410h410v410h-410v409h102v103h103v102h819v-102h102v-103h103v-1229h-103v-102h-102v-102h-819v102h-103v102h-102zM102 205h103v-103h102v-102h615v102h102v103h102v409h-102v205h102v410h-102v102h-102v103h-615v-103h-102v-102h-103v-205h205v102h103v103h409 v-103h103v-204h-103v-103h-307v-205h307v-102h103v-205h-103v-102h-409v102h-103v103h-205v-205zM410 410h102v-103h205v205h-307v-102zM410 922h307v204h-205v-102h-102v-102z" />
<glyph unicode="4" d="M0 307v615h102v102h103v102h102v103h103v102h102v103h102v102h410v-819h205v-410h-205v-409h-410v409h-614zM102 410h615v-410h205v410h204v204h-204v820h-205v-103h-103v-102h-102v-103h-102v-102h-103v-102h-102v-103h-103v-409zM307 614v103h103v102h102v103h102v102 h103v-410h-410z" />
<glyph unicode="5" d="M0 102v410h410v-102h102v-103h205v103h102v204h-102v103h-717v819h1229v-410h-205v-102h102v-102h103v-820h-103v-102h-102v-102h-819v102h-103v102h-102zM102 205h103v-103h102v-102h615v102h102v103h102v614h-102v103h-102v102h-615v205h819v205h-1024v-615h717v-102 h103v-410h-103v-102h-409v102h-103v103h-205v-205z" />
<glyph unicode="6" d="M0 102v1229h102v103h103v102h819v-102h102v-103h103v-409h-205v-103h102v-102h103v-615h-103v-102h-102v-102h-819v102h-103v102h-102zM102 205h103v-103h102v-102h615v102h102v103h102v409h-102v103h-102v102h-615v307h103v103h409v-103h103v-102h204v205h-102v102h-102 v103h-615v-103h-102v-102h-103v-1024zM307 307v307h512v-102h103v-205h-103v-102h-409v102h-103zM410 410h102v-103h205v205h-307v-102zM410 922h409v102h-102v102h-205v-102h-102v-102z" />
<glyph unicode="7" d="M0 1126v410h1229v-717h-103v-102h-102v-103h-102v-102h-103v-102h-102v-103h-103v-409h-409v716h102v103h103v102h102v103h102v102h103v102h-717zM102 1229h820v-205h-103v-102h-102v-103h-103v-102h-102v-103h-102v-102h-103v-512h205v410h102v102h103v102h102v103h103 v102h102v103h102v512h-1024v-205z" />
<glyph unicode="8" d="M0 102v1229h102v103h103v102h819v-102h102v-103h103v-1229h-103v-102h-102v-102h-819v102h-103v102h-102zM102 205h103v-103h102v-102h615v102h102v103h102v409h-102v205h102v410h-102v102h-102v103h-615v-103h-102v-102h-103v-410h103v-205h-103v-409zM307 307v205h103 v102h409v-102h103v-205h-103v-102h-409v102h-103zM307 922v204h103v103h409v-103h103v-204h-103v-103h-409v103h-103zM512 307h205v205h-205v-205zM512 922h205v204h-205v-204z" />
<glyph unicode="9" d="M0 102v410h205v102h-103v103h-102v614h102v103h103v102h819v-102h102v-103h103v-1229h-103v-102h-102v-102h-819v102h-103v102h-102zM102 205h103v-103h102v-102h615v102h102v103h102v1024h-102v102h-102v103h-615v-103h-102v-102h-103v-410h103v-102h102v-103h615v-307 h-103v-102h-409v102h-103v103h-205v-205zM307 922v204h103v103h409v-103h103v-307h-512v103h-103zM410 410h102v-103h205v103h102v102h-409v-102zM512 922h307v102h-102v102h-205v-204z" />
<glyph unicode=":" d="M410 -102v409h409v-409h-409zM410 717v409h409v-409h-409zM512 0h205v205h-205v-205zM512 819h205v205h-205v-205z" />
<glyph unicode=";" d="M410 307h409v-614h-409v614zM410 717v409h409v-409h-409zM512 205v-410h205v410h-205zM512 819h205v205h-205v-205z" />
<glyph unicode="&#x3c;" d="M205 512v410h102v102h103v102h102v103h102v102h410v-409h-102v-103h-103v-205h103v-102h102v-410h-410v103h-102v102h-102v103h-103v102h-102zM307 614h103v-102h102v-102h102v-103h103v-102h205v205h-103v102h-102v102h-103v205h103v103h102v102h103v205h-205v-103h-103 v-102h-102v-102h-102v-103h-103v-205z" />
<glyph unicode="=" d="M102 307v819h1024v-819h-1024zM205 410h819v204h-819v-204zM205 819h819v205h-819v-205z" />
<glyph unicode="&#x3e;" d="M205 102v410h102v102h103v205h-103v103h-102v409h409v-102h103v-103h102v-102h103v-102h102v-410h-102v-102h-103v-103h-102v-102h-103v-103h-409zM307 205h205v102h102v103h103v102h102v102h103v205h-103v103h-102v102h-103v102h-102v103h-205v-205h103v-102h102v-103 h102v-205h-102v-102h-102v-102h-103v-205z" />
<glyph unicode="?" d="M0 922v409h102v103h103v102h819v-102h102v-103h103v-614h-103v-103h-102v-102h-102v-102h-103v-512h-409v819h102v102h102v103h103v204h-205v-102h-102v-102h-410zM102 1024h205v102h103v103h409v-103h103v-204h-103v-103h-102v-102h-103v-103h-102v-204h205v102h102v102 h103v103h102v102h102v410h-102v102h-102v103h-615v-103h-102v-102h-103v-205zM512 0h205v205h-205v-205z" />
<glyph unicode="@" d="M0 102v1229h102v103h103v102h819v-102h102v-103h103v-921h-103v-512h-921v102h-103v102h-102zM102 205h103v-103h102v-102h717v205h-614v102h-103v819h103v103h409v-103h103v-512h-103v410h-307v-102h-102v-410h102v-102h512v102h102v717h-102v102h-102v103h-615v-103 h-102v-102h-103v-1024z" />
<glyph unicode="A" d="M0 -102v1228h102v103h103v102h102v103h103v102h409v-102h103v-103h102v-102h102v-103h103v-1228h-410v409h-409v-409h-410zM102 0h205v410h615v-410h204v1024h-102v102h-102v103h-103v102h-102v103h-205v-103h-102v-102h-103v-103h-102v-102h-103v-1024zM307 614v308h103 v102h102v102h205v-102h102v-102h103v-308h-615zM410 717h409v102h-102v103h-205v-103h-102v-102z" />
<glyph unicode="B" d="M0 -102v1638h1024v-102h102v-103h103v-1229h-103v-102h-102v-102h-1024zM102 0h820v102h102v103h102v409h-102v205h102v410h-102v102h-102v103h-820v-1434zM307 205v409h512v-102h103v-205h-103v-102h-512zM307 819v410h512v-103h103v-204h-103v-103h-512zM410 307h307 v205h-307v-205zM410 922h307v204h-307v-204z" />
<glyph unicode="C" d="M0 102v1229h102v103h103v102h819v-102h102v-103h103v-409h-410v102h-102v102h-205v-102h-102v-614h102v-103h205v103h102v102h410v-410h-103v-102h-102v-102h-819v102h-103v102h-102zM102 205h103v-103h102v-102h615v102h102v103h102v205h-204v-103h-103v-102h-409v102 h-103v819h103v103h409v-103h103v-102h204v205h-102v102h-102v103h-615v-103h-102v-102h-103v-1024z" />
<glyph unicode="D" d="M0 -102v1638h1024v-102h102v-103h103v-1229h-103v-102h-102v-102h-1024zM102 0h820v102h102v103h102v1024h-102v102h-102v103h-820v-1434zM307 205v1024h512v-103h103v-819h-103v-102h-512zM410 307h307v103h102v614h-102v102h-307v-819z" />
<glyph unicode="E" d="M0 -102v1638h1229v-410h-819v-204h614v-410h-614v-205h819v-409h-1229zM102 0h1024v205h-819v409h615v205h-615v410h819v205h-1024v-1434z" />
<glyph unicode="F" d="M0 -102v1638h1229v-410h-819v-204h614v-410h-614v-614h-410zM102 0h205v614h615v205h-615v410h819v205h-1024v-1434z" />
<glyph unicode="G" d="M0 102v1229h102v103h103v102h819v-102h102v-103h103v-1229h-103v-102h-102v-102h-819v102h-103v102h-102zM102 205h103v-103h102v-102h615v102h102v103h102v614h-614v-205h410v-307h-103v-102h-409v102h-103v819h103v103h409v-103h103v-102h204v205h-102v102h-102v103 h-615v-103h-102v-102h-103v-1024zM410 410h102v-103h205v103h102v102h-409v-102zM410 922h409v102h-102v102h-205v-102h-102v-102z" />
<glyph unicode="H" d="M0 -102v1638h410v-614h409v614h410v-1638h-410v614h-409v-614h-410zM102 0h205v614h615v-614h204v1434h-204v-615h-615v615h-205v-1434z" />
<glyph unicode="I" d="M205 -102v409h205v819h-205v410h819v-410h-205v-819h205v-409h-819zM307 0h615v205h-205v1024h205v205h-615v-205h205v-1024h-205v-205z" />
<glyph unicode="J" d="M0 102v410h410v-102h102v-103h205v103h102v1126h410v-1434h-103v-102h-102v-102h-819v102h-103v102h-102zM102 205h103v-103h102v-102h615v102h102v103h102v1229h-204v-1127h-103v-102h-409v102h-103v103h-205v-205z" />
<glyph unicode="K" d="M0 -102v1638h410v-410h102v103h102v102h103v103h102v102h410v-410h-103v-102h-102v-102h-102v-103h-103v-205h103v-102h102v-102h102v-103h103v-409h-410v102h-102v102h-103v103h-102v102h-102v-409h-410zM102 0h205v614h103v-102h102v-102h102v-103h103v-102h102v-103 h103v-102h204v205h-102v102h-102v103h-103v102h-102v102h-103v205h103v103h102v102h103v102h102v103h102v205h-204v-103h-103v-102h-102v-103h-103v-102h-102v-102h-102v-103h-103v615h-205v-1434z" />
<glyph unicode="L" d="M0 -102v1638h410v-1229h819v-409h-1229zM102 0h1024v205h-819v1229h-205v-1434z" />
<glyph unicode="M" d="M0 -102v1638h410v-205h102v-102h205v102h102v205h410v-1638h-410v716h-409v-716h-410zM102 0h205v922h103v-103h102v-102h205v102h102v103h103v-922h204v1434h-204v-205h-103v-103h-102v-102h-205v102h-102v103h-103v205h-205v-1434z" />
<glyph unicode="N" d="M0 -102v1638h410v-307h102v-103h102v-102h103v-102h102v614h410v-1638h-410v307h-102v102h-103v103h-102v102h-102v-614h-410zM102 0h205v819h103v-102h102v-103h102v-102h103v-102h102v-103h103v-307h204v1434h-204v-820h-103v103h-102v102h-103v103h-102v102h-102v102 h-103v308h-205v-1434z" />
<glyph unicode="O" d="M0 102v1229h102v103h103v102h819v-102h102v-103h103v-1229h-103v-102h-102v-102h-819v102h-103v102h-102zM102 205h103v-103h102v-102h615v102h102v103h102v1024h-102v102h-102v103h-615v-103h-102v-102h-103v-1024zM307 307v819h103v103h409v-103h103v-819h-103v-102 h-409v102h-103zM410 410h102v-103h205v103h102v614h-102v102h-205v-102h-102v-614z" />
<glyph unicode="P" d="M0 -102v1638h1024v-102h102v-103h103v-614h-103v-103h-102v-102h-614v-614h-410zM102 0h205v614h615v103h102v102h102v410h-102v102h-102v103h-820v-1434zM307 819v410h512v-103h103v-204h-103v-103h-512zM410 922h307v204h-307v-204z" />
<glyph unicode="Q" d="M0 102v1229h102v103h103v102h819v-102h102v-103h103v-1433h-1024v102h-103v102h-102zM102 205h103v-103h102v-102h512v102h103v-102h204v205h-102v102h102v922h-102v102h-102v103h-615v-103h-102v-102h-103v-1024zM307 307v819h103v103h409v-103h103v-716h-103v102h-205 v-205h103v-102h-307v102h-103zM410 410h102v204h307v410h-102v102h-205v-102h-102v-614z" />
<glyph unicode="R" d="M0 -102v1638h1024v-102h102v-103h103v-614h-103v-103h-102v-204h102v-103h103v-409h-410v102h-102v102h-103v103h-102v102h-102v-409h-410zM102 0h205v614h103v-102h102v-102h102v-103h103v-102h102v-103h103v-102h204v205h-102v102h-102v103h-103v102h-102v102h205v103 h102v102h102v410h-102v102h-102v103h-820v-1434zM307 819v410h512v-103h103v-204h-103v-103h-512zM410 922h307v204h-307v-204z" />
<glyph unicode="S" d="M0 102v410h205v102h-103v103h-102v614h102v103h103v102h819v-102h102v-103h103v-409h-205v-103h102v-102h103v-615h-103v-102h-102v-102h-819v102h-103v102h-102zM102 205h103v-103h102v-102h615v102h102v103h102v409h-102v103h-102v102h-512v103h-103v204h103v103h409 v-103h103v-102h204v205h-102v102h-102v103h-615v-103h-102v-102h-103v-410h103v-102h102v-103h512v-102h103v-205h-103v-102h-409v102h-103v103h-205v-205zM410 410h102v-103h205v205h-307v-102zM512 922h307v102h-102v102h-205v-204z" />
<glyph unicode="T" d="M0 1126v410h1229v-410h-410v-1228h-409v1228h-410zM102 1229h410v-1229h205v1229h409v205h-1024v-205z" />
<glyph unicode="U" d="M0 102v1434h410v-1126h102v-103h205v103h102v1126h410v-1434h-103v-102h-102v-102h-819v102h-103v102h-102zM102 205h103v-103h102v-102h615v102h102v103h102v1229h-204v-1127h-103v-102h-409v102h-103v1127h-205v-1229z" />
<glyph unicode="V" d="M0 205v1331h410v-1024h102v-102h205v102h102v1024h410v-1331h-103v-103h-102v-102h-102v-102h-615v102h-102v102h-103v103h-102zM102 307h103v-102h102v-103h103v-102h409v102h103v103h102v102h102v1127h-204v-1024h-103v-103h-102v-102h-205v102h-102v103h-103v1024 h-205v-1127z" />
<glyph unicode="W" d="M0 102v1434h410v-614h409v614h410v-1434h-103v-102h-102v-102h-819v102h-103v102h-102zM102 205h103v-103h102v-102h205v102h205v-102h205v102h102v103h102v1229h-204v-1127h-205v512h-205v-512h-205v1127h-205v-1229z" />
<glyph unicode="X" d="M0 -102v614h102v102h103v205h-103v103h-102v614h410v-307h102v-103h205v103h102v307h410v-614h-103v-103h-102v-205h102v-102h103v-614h-410v307h-102v102h-205v-102h-102v-307h-410zM102 0h205v307h103v103h102v102h205v-102h102v-103h103v-307h204v410h-102v102h-102 v102h-103v205h103v103h102v102h102v410h-204v-308h-103v-102h-102v-102h-205v102h-102v102h-103v308h-205v-410h103v-102h102v-103h103v-205h-103v-102h-102v-102h-103v-410z" />
<glyph unicode="Y" d="M0 922v614h410v-307h102v-103h205v103h102v307h410v-614h-103v-103h-102v-102h-102v-103h-103v-716h-409v716h-103v103h-102v102h-103v103h-102zM102 1024h103v-102h102v-103h103v-102h102v-717h205v717h102v102h103v103h102v102h102v410h-204v-308h-103v-102h-102v-102 h-205v102h-102v102h-103v308h-205v-410z" />
<glyph unicode="Z" d="M0 -102v614h102v102h103v103h102v102h103v103h102v102h102v102h-614v410h1229v-614h-103v-103h-102v-102h-102v-103h-103v-102h-102v-102h-103v-103h615v-409h-1229zM102 0h1024v205h-819v102h103v103h102v102h102v102h103v103h102v102h103v103h102v102h102v410h-1024 v-205h820v-103h-103v-102h-102v-102h-103v-103h-102v-102h-102v-103h-103v-102h-102v-102h-103v-410z" />
<glyph unicode="[" d="M205 -307v2048h819v-410h-410v-1229h410v-409h-819zM307 -205h615v205h-410v1434h410v204h-615v-1843z" />
<glyph unicode="\" d="M0 922v614h410v-307h102v-103h102v-102h103v-102h102v-103h103v-102h102v-103h102v-102h103v-614h-410v307h-102v102h-103v103h-102v102h-102v102h-103v103h-102v102h-103v103h-102zM102 1024h103v-102h102v-103h103v-102h102v-103h102v-102h103v-102h102v-103h103v-307 h204v410h-102v102h-102v102h-103v103h-102v102h-103v103h-102v102h-102v102h-103v308h-205v-410z" />
<glyph unicode="]" d="M205 102h409v1229h-409v410h819v-2048h-819v409zM307 0v-205h615v1843h-615v-204h410v-1434h-410z" />
<glyph unicode="_" d="M0 102h1229v-409h-1229v409zM102 0v-205h1024v205h-1024z" />
<glyph unicode="`" d="M205 1331v410h409v-103h103v-102h102v-410h-409v103h-103v102h-102zM307 1434h103v-103h102v-102h205v205h-103v102h-102v102h-205v-204z" />
<glyph unicode="a" d="M0 -102v1228h102v103h103v102h102v103h103v102h409v-102h103v-103h102v-102h102v-103h103v-1228h-410v409h-409v-409h-410zM102 0h205v410h615v-410h204v1024h-102v102h-102v103h-103v102h-102v103h-205v-103h-102v-102h-103v-103h-102v-102h-103v-1024zM307 614v308h103 v102h102v102h205v-102h102v-102h103v-308h-615zM410 717h409v102h-102v103h-205v-103h-102v-102z" />
<glyph unicode="b" d="M0 -102v1638h1024v-102h102v-103h103v-1229h-103v-102h-102v-102h-1024zM102 0h820v102h102v103h102v409h-102v205h102v410h-102v102h-102v103h-820v-1434zM307 205v409h512v-102h103v-205h-103v-102h-512zM307 819v410h512v-103h103v-204h-103v-103h-512zM410 307h307 v205h-307v-205zM410 922h307v204h-307v-204z" />
<glyph unicode="c" d="M0 102v1229h102v103h103v102h819v-102h102v-103h103v-409h-410v102h-102v102h-205v-102h-102v-614h102v-103h205v103h102v102h410v-410h-103v-102h-102v-102h-819v102h-103v102h-102zM102 205h103v-103h102v-102h615v102h102v103h102v205h-204v-103h-103v-102h-409v102 h-103v819h103v103h409v-103h103v-102h204v205h-102v102h-102v103h-615v-103h-102v-102h-103v-1024z" />
<glyph unicode="d" d="M0 -102v1638h1024v-102h102v-103h103v-1229h-103v-102h-102v-102h-1024zM102 0h820v102h102v103h102v1024h-102v102h-102v103h-820v-1434zM307 205v1024h512v-103h103v-819h-103v-102h-512zM410 307h307v103h102v614h-102v102h-307v-819z" />
<glyph unicode="e" d="M0 -102v1638h1229v-410h-819v-204h614v-410h-614v-205h819v-409h-1229zM102 0h1024v205h-819v409h615v205h-615v410h819v205h-1024v-1434z" />
<glyph unicode="f" d="M0 -102v1638h1229v-410h-819v-204h614v-410h-614v-614h-410zM102 0h205v614h615v205h-615v410h819v205h-1024v-1434z" />
<glyph unicode="g" d="M0 102v1229h102v103h103v102h819v-102h102v-103h103v-1229h-103v-102h-102v-102h-819v102h-103v102h-102zM102 205h103v-103h102v-102h615v102h102v103h102v614h-614v-205h410v-307h-103v-102h-409v102h-103v819h103v103h409v-103h103v-102h204v205h-102v102h-102v103 h-615v-103h-102v-102h-103v-1024zM410 410h102v-103h205v103h102v102h-409v-102zM410 922h409v102h-102v102h-205v-102h-102v-102z" />
<glyph unicode="h" d="M0 -102v1638h410v-614h409v614h410v-1638h-410v614h-409v-614h-410zM102 0h205v614h615v-614h204v1434h-204v-615h-615v615h-205v-1434z" />
<glyph unicode="i" d="M205 -102v409h205v819h-205v410h819v-410h-205v-819h205v-409h-819zM307 0h615v205h-205v1024h205v205h-615v-205h205v-1024h-205v-205z" />
<glyph unicode="j" d="M0 102v410h410v-102h102v-103h205v103h102v1126h410v-1434h-103v-102h-102v-102h-819v102h-103v102h-102zM102 205h103v-103h102v-102h615v102h102v103h102v1229h-204v-1127h-103v-102h-409v102h-103v103h-205v-205z" />
<glyph unicode="k" d="M0 -102v1638h410v-410h102v103h102v102h103v103h102v102h410v-410h-103v-102h-102v-102h-102v-103h-103v-205h103v-102h102v-102h102v-103h103v-409h-410v102h-102v102h-103v103h-102v102h-102v-409h-410zM102 0h205v614h103v-102h102v-102h102v-103h103v-102h102v-103 h103v-102h204v205h-102v102h-102v103h-103v102h-102v102h-103v205h103v103h102v102h103v102h102v103h102v205h-204v-103h-103v-102h-102v-103h-103v-102h-102v-102h-102v-103h-103v615h-205v-1434z" />
<glyph unicode="l" d="M0 -102v1638h410v-1229h819v-409h-1229zM102 0h1024v205h-819v1229h-205v-1434z" />
<glyph unicode="m" d="M0 -102v1638h410v-205h102v-102h205v102h102v205h410v-1638h-410v716h-409v-716h-410zM102 0h205v922h103v-103h102v-102h205v102h102v103h103v-922h204v1434h-204v-205h-103v-103h-102v-102h-205v102h-102v103h-103v205h-205v-1434z" />
<glyph unicode="n" d="M0 -102v1638h410v-307h102v-103h102v-102h103v-102h102v614h410v-1638h-410v307h-102v102h-103v103h-102v102h-102v-614h-410zM102 0h205v819h103v-102h102v-103h102v-102h103v-102h102v-103h103v-307h204v1434h-204v-820h-103v103h-102v102h-103v103h-102v102h-102v102 h-103v308h-205v-1434z" />
<glyph unicode="o" d="M0 102v1229h102v103h103v102h819v-102h102v-103h103v-1229h-103v-102h-102v-102h-819v102h-103v102h-102zM102 205h103v-103h102v-102h615v102h102v103h102v1024h-102v102h-102v103h-615v-103h-102v-102h-103v-1024zM307 307v819h103v103h409v-103h103v-819h-103v-102 h-409v102h-103zM410 410h102v-103h205v103h102v614h-102v102h-205v-102h-102v-614z" />
<glyph unicode="p" d="M0 -102v1638h1024v-102h102v-103h103v-614h-103v-103h-102v-102h-614v-614h-410zM102 0h205v614h615v103h102v102h102v410h-102v102h-102v103h-820v-1434zM307 819v410h512v-103h103v-204h-103v-103h-512zM410 922h307v204h-307v-204z" />
<glyph unicode="q" d="M0 102v1229h102v103h103v102h819v-102h102v-103h103v-1433h-1024v102h-103v102h-102zM102 205h103v-103h102v-102h512v102h103v-102h204v205h-102v102h102v922h-102v102h-102v103h-615v-103h-102v-102h-103v-1024zM307 307v819h103v103h409v-103h103v-716h-103v102h-205 v-205h103v-102h-307v102h-103zM410 410h102v204h307v410h-102v102h-205v-102h-102v-614z" />
<glyph unicode="r" d="M0 -102v1638h1024v-102h102v-103h103v-614h-103v-103h-102v-204h102v-103h103v-409h-410v102h-102v102h-103v103h-102v102h-102v-409h-410zM102 0h205v614h103v-102h102v-102h102v-103h103v-102h102v-103h103v-102h204v205h-102v102h-102v103h-103v102h-102v102h205v103 h102v102h102v410h-102v102h-102v103h-820v-1434zM307 819v410h512v-103h103v-204h-103v-103h-512zM410 922h307v204h-307v-204z" />
<glyph unicode="s" d="M0 102v410h205v102h-103v103h-102v614h102v103h103v102h819v-102h102v-103h103v-409h-205v-103h102v-102h103v-615h-103v-102h-102v-102h-819v102h-103v102h-102zM102 205h103v-103h102v-102h615v102h102v103h102v409h-102v103h-102v102h-512v103h-103v204h103v103h409 v-103h103v-102h204v205h-102v102h-102v103h-615v-103h-102v-102h-103v-410h103v-102h102v-103h512v-102h103v-205h-103v-102h-409v102h-103v103h-205v-205zM410 410h102v-103h205v205h-307v-102zM512 922h307v102h-102v102h-205v-204z" />
<glyph unicode="t" d="M0 1126v410h1229v-410h-410v-1228h-409v1228h-410zM102 1229h410v-1229h205v1229h409v205h-1024v-205z" />
<glyph unicode="u" d="M0 102v1434h410v-1126h102v-103h205v103h102v1126h410v-1434h-103v-102h-102v-102h-819v102h-103v102h-102zM102 205h103v-103h102v-102h615v102h102v103h102v1229h-204v-1127h-103v-102h-409v102h-103v1127h-205v-1229z" />
<glyph unicode="v" d="M0 205v1331h410v-1024h102v-102h205v102h102v1024h410v-1331h-103v-103h-102v-102h-102v-102h-615v102h-102v102h-103v103h-102zM102 307h103v-102h102v-103h103v-102h409v102h103v103h102v102h102v1127h-204v-1024h-103v-103h-102v-102h-205v102h-102v103h-103v1024 h-205v-1127z" />
<glyph unicode="w" d="M0 102v1434h410v-614h409v614h410v-1434h-103v-102h-102v-102h-819v102h-103v102h-102zM102 205h103v-103h102v-102h205v102h205v-102h205v102h102v103h102v1229h-204v-1127h-205v512h-205v-512h-205v1127h-205v-1229z" />
<glyph unicode="x" d="M0 -102v614h102v102h103v205h-103v103h-102v614h410v-307h102v-103h205v103h102v307h410v-614h-103v-103h-102v-205h102v-102h103v-614h-410v307h-102v102h-205v-102h-102v-307h-410zM102 0h205v307h103v103h102v102h205v-102h102v-103h103v-307h204v410h-102v102h-102 v102h-103v205h103v103h102v102h102v410h-204v-308h-103v-102h-102v-102h-205v102h-102v102h-103v308h-205v-410h103v-102h102v-103h103v-205h-103v-102h-102v-102h-103v-410z" />
<glyph unicode="y" d="M0 922v614h410v-307h102v-103h205v103h102v307h410v-614h-103v-103h-102v-102h-102v-103h-103v-716h-409v716h-103v103h-102v102h-103v103h-102zM102 1024h103v-102h102v-103h103v-102h102v-717h205v717h102v102h103v103h102v102h102v410h-204v-308h-103v-102h-102v-102 h-205v102h-102v102h-103v308h-205v-410z" />
<glyph unicode="z" d="M0 -102v614h102v102h103v103h102v102h103v103h102v102h102v102h-614v410h1229v-614h-103v-103h-102v-102h-102v-103h-103v-102h-102v-102h-103v-103h615v-409h-1229zM102 0h1024v205h-819v102h103v103h102v102h102v102h103v103h102v102h103v103h102v102h102v410h-1024 v-205h820v-103h-103v-102h-102v-102h-103v-103h-102v-102h-102v-103h-103v-102h-102v-102h-103v-410z" />
<glyph unicode="{" d="M102 512v410h103v102h102v512h103v102h102v103h614v-410h-307v-102h-102v-1024h102v-103h307v-409h-614v102h-102v103h-103v512h-102v102h-103zM205 614h102v-102h103v-512h102v-102h102v-103h410v205h-307v102h-103v512h-102v205h102v512h103v103h307v204h-410v-102 h-102v-102h-102v-512h-103v-103h-102v-205z" />
<glyph unicode="|" d="M410 -307v2048h409v-2048h-409zM512 -205h205v1843h-205v-1843z" />
<glyph unicode="}" d="M102 102h308v103h102v1024h-102v102h-308v410h615v-103h102v-102h103v-512h102v-102h102v-410h-102v-102h-102v-512h-103v-103h-102v-102h-615v409zM205 0v-205h409v103h103v102h102v512h103v102h102v205h-102v103h-103v512h-102v102h-103v102h-409v-204h307v-103h102 v-512h103v-205h-103v-512h-102v-102h-307z" />
<glyph unicode="~" d="M0 410v409h102v103h103v102h512v-102h102v102h410v-410h-103v-102h-102v-102h-512v102h-102v-102h-410zM102 512h205v102h103v103h102v-103h102v-102h308v102h102v103h102v205h-204v-103h-103v-102h-102v102h-103v103h-307v-103h-102v-102h-103v-205z" />
<glyph unicode="&#xa0;" />
<glyph unicode="&#xa1;" d="M410 -102v1638h409v-1638h-409zM512 0h205v1024h-205v-1024zM512 1229h205v205h-205v-205z" />
<glyph unicode="&#xa2;" d="M0 307v819h102v103h103v102h205v205h409v-205h205v-102h102v-103h103v-819h-103v-102h-102v-103h-205v-204h-409v204h-205v103h-103v102h-102zM102 410h103v-103h102v-102h205v-205h205v205h205v102h102v103h102v204h-204v-102h-103v-102h-102v614h102v-102h103v-103h204 v205h-102v102h-102v103h-205v205h-205v-205h-205v-103h-102v-102h-103v-614zM307 512h103v-102h102v614h-102v-102h-103v-410z" />
<glyph unicode="&#xa3;" d="M0 -102v512h102v102h-102v410h205v409h102v103h103v102h614v-102h102v-103h103v-409h-205v-410h-410v-205h615v-409h-1229zM102 0h1024v205h-716v102h102v307h410v205h-410v307h102v103h205v-103h103v-102h204v205h-102v102h-102v103h-410v-103h-102v-102h-103v-410h-205 v-205h205v-204h-102v-103h-103v-307zM614 922h205v102h-205v-102z" />
<glyph unicode="&#xa4;" d="M0 102v1229h1229v-1229h-1229zM102 205h205v102h103v-102h409v102h103v-102h204v205h-102v102h102v410h-102v102h102v205h-204v-103h-103v103h-409v-103h-103v103h-205v-205h103v-102h-103v-410h103v-102h-103v-205zM307 614v205h103v103h102v102h205v-102h102v-103h103 v-205h-103v-102h-102v-102h-205v102h-102v102h-103zM512 614h205v205h-205v-205z" />
<glyph unicode="&#xa5;" d="M0 922v614h410v-307h102v-103h205v103h102v307h410v-614h-103v-103h-102v-102h102v-410h-307v-409h-409v409h-308v410h103v102h-103v103h-102zM102 1024h103v-102h102v-103h103v-102h102v-103h-307v-204h307v-410h205v410h307v204h-307v103h102v102h103v103h102v102h102 v410h-204v-308h-103v-102h-102v-102h-205v102h-102v102h-103v308h-205v-410z" />
<glyph unicode="&#xa6;" d="M410 -307v2048h409v-2048h-409zM512 -205h205v819h-205v-819zM512 819h205v819h-205v-819z" />
<glyph unicode="&#xa8;" d="M205 1331v410h819v-410h-819zM307 1434h205v204h-205v-204zM717 1434h205v204h-205v-204z" />
<glyph unicode="&#xab;" d="M102 512v410h103v102h102v102h819v-819h-819v103h-102v102h-103zM205 614h102v-102h103v-102h204v204h103v-102h102v-102h205v204h-102v205h102v205h-205v-102h-102v-103h-103v205h-204v-102h-103v-103h-102v-205zM512 614h102v205h-102v-205z" />
<glyph unicode="&#xad;" d="M102 512v410h1024v-410h-1024zM205 614h819v205h-819v-205z" />
<glyph unicode="&#xb1;" d="M102 -102v409h308v205h-308v410h308v307h409v-307h307v-410h-307v-205h307v-409h-1024zM205 0h819v205h-819v-205zM205 614h307v-307h205v307h307v205h-307v307h-205v-307h-307v-205z" />
<glyph unicode="&#xb4;" d="M410 1126v410h102v102h102v103h410v-410h-102v-102h-103v-103h-409zM512 1229h205v102h102v103h103v204h-205v-102h-103v-102h-102v-205z" />
<glyph unicode="&#xb8;" d="M307 102h103v205h409v-102h103v-410h-103v-102h-512v409zM410 0v-205h307v103h102v204h-102v103h-205v-103h102v-102h-204z" />
<glyph unicode="&#xbb;" d="M102 307v819h820v-102h102v-102h102v-410h-102v-102h-102v-103h-820zM205 410h205v102h102v102h102v-204h205v102h103v102h102v205h-102v103h-103v102h-205v-205h-102v103h-102v102h-205v-205h102v-205h-102v-204zM614 614h103v205h-103v-205z" />
<glyph unicode="&#xbf;" d="M0 102v615h102v102h103v103h102v102h103v512h409v-819h-102v-103h-103v-102h-102v-205h205v103h102v102h410v-410h-103v-102h-102v-102h-819v102h-103v102h-102zM102 205h103v-103h102v-102h615v102h102v103h102v205h-204v-103h-103v-102h-409v102h-103v205h103v102h102 v103h102v102h103v205h-205v-102h-102v-103h-103v-102h-102v-103h-103v-409zM512 1229h205v205h-205v-205z" />
<glyph unicode="&#xc0;" d="M0 -102v1126h102v102h103v103h102v102h-102v410h409v-103h103v-102h102v-205h103v-102h102v-103h102v-102h103v-1126h-410v409h-409v-409h-410zM102 0h205v410h615v-410h204v922h-102v102h-102v102h-103v103h-102v205h-103v102h-102v102h-205v-204h103v-103h102v-102 h-102v-103h-103v-102h-102v-102h-103v-922zM307 614v205h103v103h102v102h205v-102h102v-103h103v-205h-615zM512 717h205v102h-205v-102z" />
<glyph unicode="&#xc1;" d="M0 -102v1126h102v102h103v103h102v102h103v205h102v102h102v103h410v-410h-102v-102h102v-103h102v-102h103v-1126h-410v409h-409v-409h-410zM102 0h205v410h615v-410h204v922h-102v102h-102v102h-103v103h-102v102h102v103h103v204h-205v-102h-103v-102h-102v-205h-102 v-103h-103v-102h-102v-102h-103v-922zM307 614v205h103v103h102v102h205v-102h102v-103h103v-205h-615zM512 717h205v102h-205v-102z" />
<glyph unicode="&#xc2;" d="M0 -102v1126h102v102h103v410h102v102h103v103h409v-103h103v-102h102v-410h102v-102h103v-1126h-410v409h-409v-409h-410zM102 0h205v410h615v-410h204v922h-102v102h-102v102h-103v103h103v205h-103v102h-102v102h-205v-102h-102v-102h-103v-205h103v-103h-103v-102 h-102v-102h-103v-922zM307 614v205h103v103h102v102h205v-102h102v-103h103v-205h-615zM512 717h205v102h-205v-102zM512 1229h205v102h-205v-102z" />
<glyph unicode="&#xc3;" d="M0 -102v1126h102v102h-102v410h102v102h103v103h512v-103h102v103h410v-410h-103v-102h-102v-103h102v-102h103v-1126h-410v409h-409v-409h-410zM102 0h205v410h615v-410h204v922h-102v102h-102v102h-103v103h103v102h102v103h102v204h-204v-102h-103v-102h-102v102h-103 v102h-307v-102h-102v-102h-103v-205h205v102h103v103h102v-103h102v-102h-204v-103h-103v-102h-102v-102h-103v-922zM307 614v205h103v103h102v102h205v-102h102v-103h103v-205h-615zM512 717h205v102h-205v-102z" />
<glyph unicode="&#xc4;" d="M0 -102v1126h102v102h103v103h102v102h-102v410h819v-410h-102v-102h102v-103h102v-102h103v-1126h-410v409h-409v-409h-410zM102 0h205v410h615v-410h204v922h-102v102h-102v102h-103v103h-409v-103h-103v-102h-102v-102h-103v-922zM307 614v205h103v103h102v102h205 v-102h102v-103h103v-205h-615zM307 1434h205v204h-205v-204zM512 717h205v102h-205v-102zM717 1434h205v204h-205v-204z" />
<glyph unicode="&#xc5;" d="M0 -102v1126h102v102h103v103h102v409h103v103h409v-103h103v-409h102v-103h102v-102h103v-1126h-410v409h-409v-409h-410zM102 0h205v410h615v-410h204v922h-102v102h-102v102h-103v103h-102v102h102v205h-102v102h-205v-102h-102v-205h102v-102h-102v-103h-103v-102 h-102v-102h-103v-922zM307 614v205h103v103h102v102h205v-102h102v-103h103v-205h-615zM512 717h205v102h-205v-102z" />
<glyph unicode="&#xc6;" d="M0 -102v1228h102v103h103v102h102v103h103v102h819v-410h-410v-204h307v-410h-307v-205h410v-409h-1229zM102 0h205v410h205v-410h614v205h-409v409h307v205h-307v410h409v205h-614v-103h-102v-102h-103v-103h-102v-102h-103v-1024zM307 614h205v410h-102v-102h-103v-308 z" />
<glyph unicode="&#xc7;" d="M0 307v1024h102v103h103v102h819v-102h102v-103h103v-409h-410v102h-102v102h-205v-102h-102v-410h102v-102h205v102h102v103h410v-410h-103v-102h-102v-103h-102v-307h-103v-102h-512v409h-102v103h-103v102h-102zM102 410h103v-103h102v-102h205v-103h102v-102h-204 v-205h307v103h102v204h-102v103h205v102h102v103h102v204h-204v-102h-103v-102h-409v102h-103v614h103v103h409v-103h103v-102h204v205h-102v102h-102v103h-615v-103h-102v-102h-103v-819z" />
<glyph unicode="&#xc8;" d="M0 -102v1433h205v410h409v-103h103v-102h102v-205h410v-409h-205v-410h-614v-205h819v-409h-1229zM102 0h1024v205h-819v409h615v205h-615v205h819v205h-409v205h-103v102h-102v102h-205v-204h103v-103h102v-102h-410v-1229z" />
<glyph unicode="&#xc9;" d="M0 -102v1433h410v205h102v102h102v103h410v-410h205v-409h-205v-410h-614v-205h819v-409h-1229zM102 0h1024v205h-819v409h615v205h-615v205h819v205h-409v102h102v103h103v204h-205v-102h-103v-102h-102v-205h-410v-1229z" />
<glyph unicode="&#xca;" d="M0 -102v1433h205v205h102v102h103v103h409v-103h103v-102h102v-205h205v-409h-205v-410h-614v-205h819v-409h-1229zM102 0h1024v205h-819v409h615v205h-615v205h819v205h-204v205h-103v102h-102v102h-205v-102h-102v-102h-103v-205h-205v-1229zM512 1229h205v102h-205 v-102z" />
<glyph unicode="&#xcb;" d="M0 -102v1433h205v410h819v-410h205v-409h-205v-410h-614v-205h819v-409h-1229zM102 0h1024v205h-819v409h615v205h-615v205h819v205h-1024v-1229zM307 1434h205v204h-205v-204zM717 1434h205v204h-205v-204z" />
<glyph unicode="&#xcc;" d="M205 -102v409h205v615h-205v819h409v-103h103v-102h102v-205h205v-409h-205v-615h205v-409h-819zM307 0h615v205h-205v819h205v205h-205v205h-103v102h-102v102h-205v-204h103v-103h102v-102h-205v-205h205v-819h-205v-205z" />
<glyph unicode="&#xcd;" d="M205 -102v409h205v615h-205v409h205v205h102v102h102v103h410v-819h-205v-615h205v-409h-819zM307 0h615v205h-205v819h205v205h-205v102h102v103h103v204h-205v-102h-103v-102h-102v-205h-205v-205h205v-819h-205v-205z" />
<glyph unicode="&#xce;" d="M205 -102v409h205v615h-205v614h102v102h103v103h409v-103h103v-102h102v-614h-205v-615h205v-409h-819zM307 0h615v205h-205v819h205v410h-103v102h-102v102h-205v-102h-102v-102h-103v-410h205v-819h-205v-205zM512 1229h205v102h-205v-102z" />
<glyph unicode="&#xcf;" d="M205 -102v409h205v615h-205v819h819v-819h-205v-615h205v-409h-819zM307 0h615v205h-205v819h205v205h-615v-205h205v-819h-205v-205zM307 1434h205v204h-205v-204zM717 1434h205v204h-205v-204z" />
<glyph unicode="&#xd0;" d="M0 512v410h205v614h819v-102h102v-103h103v-1229h-103v-102h-102v-102h-819v614h-205zM102 614h205v-614h615v102h102v103h102v1024h-102v102h-102v103h-615v-615h-205v-205zM512 205v409h205v205h-205v410h307v-103h103v-819h-103v-102h-307zM614 307h103v103h102v102 h-205v-205zM614 922h205v102h-102v102h-103v-204z" />
<glyph unicode="&#xd1;" d="M0 -102v1638h102v102h103v103h512v-103h102v103h410v-1843h-410v307h-102v102h-103v103h-102v102h-102v-614h-410zM102 0h205v819h103v-102h102v-103h102v-102h103v-102h102v-103h103v-307h204v1229h-204v102h102v103h102v204h-204v-102h-103v-102h-102v102h-103v102 h-307v-102h-102v-102h-103v-1434zM307 1126v205h103v103h102v-103h102v-102h308v-615h-103v103h-102v102h-103v103h-102v102h-102v102h-103zM614 1024h103v-102h102v204h-205v-102z" />
<glyph unicode="&#xd2;" d="M0 102v1024h102v103h103v512h409v-103h103v-102h102v-205h205v-102h102v-103h103v-1024h-103v-102h-102v-102h-819v102h-103v102h-102zM102 205h103v-103h102v-102h615v102h102v103h102v819h-102v102h-102v103h-205v205h-103v102h-102v102h-205v-204h103v-103h102v-102 h-205v-103h-102v-102h-103v-819zM307 307v615h103v102h409v-102h103v-615h-103v-102h-409v102h-103zM410 410h102v-103h205v103h102v409h-102v103h-205v-103h-102v-409z" />
<glyph unicode="&#xd3;" d="M0 102v1024h102v103h103v102h205v205h102v102h102v103h410v-512h102v-103h103v-1024h-103v-102h-102v-102h-819v102h-103v102h-102zM102 205h103v-103h102v-102h615v102h102v103h102v819h-102v102h-102v103h-205v102h102v103h103v204h-205v-102h-103v-102h-102v-205h-205 v-103h-102v-102h-103v-819zM307 307v615h103v102h409v-102h103v-615h-103v-102h-409v102h-103zM410 410h102v-103h205v103h102v409h-102v103h-205v-103h-102v-409z" />
<glyph unicode="&#xd4;" d="M0 102v1024h102v103h103v307h102v102h103v103h409v-103h103v-102h102v-307h102v-103h103v-1024h-103v-102h-102v-102h-819v102h-103v102h-102zM102 205h103v-103h102v-102h615v102h102v103h102v819h-102v102h-102v308h-103v102h-102v102h-205v-102h-102v-102h-103v-308 h-102v-102h-103v-819zM307 307v615h103v102h409v-102h103v-615h-103v-102h-409v102h-103zM410 410h102v-103h205v103h102v409h-102v103h-205v-103h-102v-409zM512 1229h205v102h-205v-102z" />
<glyph unicode="&#xd5;" d="M0 102v1434h102v102h103v103h512v-103h102v103h410v-410h-103v-205h103v-1024h-103v-102h-102v-102h-819v102h-103v102h-102zM102 205h103v-103h102v-102h615v102h102v103h102v819h-102v102h-102v205h102v103h102v204h-204v-102h-103v-102h-102v102h-103v102h-307v-102 h-102v-102h-103v-205h205v-103h-102v-102h-103v-819zM307 307v615h103v102h409v-102h103v-615h-103v-102h-409v102h-103zM307 1229h307v102h-102v103h-102v-103h-103v-102zM410 410h102v-103h205v103h102v409h-102v103h-205v-103h-102v-409z" />
<glyph unicode="&#xd6;" d="M0 102v1024h102v103h103v512h819v-512h102v-103h103v-1024h-103v-102h-102v-102h-819v102h-103v102h-102zM102 205h103v-103h102v-102h615v102h102v103h102v819h-102v102h-102v103h-615v-103h-102v-102h-103v-819zM307 307v615h103v102h409v-102h103v-615h-103v-102h-409 v102h-103zM307 1434h205v204h-205v-204zM410 410h102v-103h205v103h102v409h-102v103h-205v-103h-102v-409zM717 1434h205v204h-205v-204z" />
<glyph unicode="&#xd7;" d="M0 102v410h102v102h103v205h-103v103h-102v409h410v-102h102v-103h205v103h102v102h410v-409h-103v-103h-102v-205h102v-102h103v-410h-410v103h-102v102h-205v-102h-102v-103h-410zM102 205h205v102h103v103h102v102h205v-102h102v-103h103v-102h204v205h-102v102h-102 v102h-103v205h103v103h102v102h102v205h-204v-103h-103v-102h-102v-102h-205v102h-102v102h-103v103h-205v-205h103v-102h102v-103h103v-205h-103v-102h-102v-102h-103v-205z" />
<glyph unicode="&#xd8;" d="M0 -102v1433h102v103h103v102h1024v-1434h-103v-102h-102v-102h-1024zM102 0h820v102h102v103h102v1229h-819v-103h-102v-102h-103v-1229zM307 614v512h103v103h409v-205h-102v-102h-103v-103h-102v-102h-102v-103h-103zM410 205v205h102v102h102v102h103v103h102v102 h103v-512h-103v-102h-409zM410 922h102v102h102v102h-102v-102h-102v-102zM614 307h103v103h102v102h-102v-102h-103v-103z" />
<glyph unicode="&#xd9;" d="M0 102v1229h205v410h409v-103h103v-102h102v-205h410v-1229h-103v-102h-102v-102h-819v102h-103v102h-102zM102 205h103v-103h102v-102h615v102h102v103h102v1024h-204v-922h-103v-102h-409v102h-103v922h-205v-1024zM307 1434h103v-103h102v-102h205v205h-103v102h-102 v102h-205v-204zM410 410h102v-103h205v103h102v716h-409v-716z" />
<glyph unicode="&#xda;" d="M0 102v1229h410v205h102v102h102v103h410v-410h205v-1229h-103v-102h-102v-102h-819v102h-103v102h-102zM102 205h103v-103h102v-102h615v102h102v103h102v1024h-204v-922h-103v-102h-409v102h-103v922h-205v-1024zM410 410h102v-103h205v103h102v716h-409v-716z M512 1229h205v102h102v103h103v204h-205v-102h-103v-102h-102v-205z" />
<glyph unicode="&#xdb;" d="M0 102v1229h205v205h102v102h103v103h409v-103h103v-102h102v-205h205v-1229h-103v-102h-102v-102h-819v102h-103v102h-102zM102 205h103v-103h102v-102h615v102h102v103h102v1024h-204v205h-103v102h-102v102h-205v-102h-102v-102h-103v-205h-205v-1024zM307 307v922 h205v102h205v-102h205v-922h-103v-102h-409v102h-103zM410 410h102v-103h205v103h102v716h-409v-716z" />
<glyph unicode="&#xdc;" d="M0 102v1229h205v410h819v-410h205v-1229h-103v-102h-102v-102h-819v102h-103v102h-102zM102 205h103v-103h102v-102h615v102h102v103h102v1024h-204v-922h-103v-102h-409v102h-103v922h-205v-1024zM307 1434h205v204h-205v-204zM410 410h102v-103h205v103h102v921h-409 v-921zM717 1434h205v204h-205v-204z" />
<glyph unicode="&#xdd;" d="M0 717v614h410v205h102v102h102v103h410v-410h205v-614h-103v-103h-102v-102h-102v-102h-103v-512h-409v512h-103v102h-102v102h-103v103h-102zM102 819h103v-102h102v-103h103v-102h102v-512h205v512h102v102h103v103h102v102h102v410h-204v-307h-103v-103h-102v-102 h-205v102h-102v103h-103v307h-205v-410zM410 1024h102v-102h205v102h102v102h-409v-102zM512 1229h205v102h102v103h103v204h-205v-102h-103v-102h-102v-205z" />
<glyph unicode="&#xde;" d="M205 -102v1638h409v-307h410v-103h102v-102h103v-614h-103v-103h-102v-102h-410v-307h-409zM307 0h205v307h410v103h102v102h102v410h-102v102h-102v102h-410v308h-205v-1434zM512 512v410h307v-103h103v-205h-103v-102h-307zM614 614h103v205h-103v-205z" />
<glyph unicode="&#xdf;" d="M0 -102v1433h102v103h103v102h717v-102h102v-103h102v-512h-102v-102h102v-103h103v-512h-103v-102h-102v-102h-1024zM102 0h205v1126h103v103h307v-103h102v-102h-102v-102h-103v-308h103v-102h102v-102h103v-103h-103v-102h-307v-205h410v102h102v103h102v307h-102v102 h-102v103h-103v102h103v103h102v307h-102v102h-103v103h-512v-103h-102v-102h-103v-1229zM410 307h307v103h-103v102h-102v512h102v102h-102v-102h-102v-717z" />
<glyph unicode="&#xe0;" d="M0 -102v1126h102v102h103v103h102v102h-102v410h409v-103h103v-102h102v-205h103v-102h102v-103h102v-102h103v-1126h-410v409h-409v-409h-410zM102 0h205v410h615v-410h204v922h-102v102h-102v102h-103v103h-102v205h-103v102h-102v102h-205v-204h103v-103h102v-102 h-102v-103h-103v-102h-102v-102h-103v-922zM307 614v205h103v103h102v102h205v-102h102v-103h103v-205h-615zM512 717h205v102h-205v-102z" />
<glyph unicode="&#xe1;" d="M0 -102v1126h102v102h103v103h102v102h103v205h102v102h102v103h410v-410h-102v-102h102v-103h102v-102h103v-1126h-410v409h-409v-409h-410zM102 0h205v410h615v-410h204v922h-102v102h-102v102h-103v103h-102v102h102v103h103v204h-205v-102h-103v-102h-102v-205h-102 v-103h-103v-102h-102v-102h-103v-922zM307 614v205h103v103h102v102h205v-102h102v-103h103v-205h-615zM512 717h205v102h-205v-102z" />
<glyph unicode="&#xe2;" d="M0 -102v1126h102v102h103v410h102v102h103v103h409v-103h103v-102h102v-410h102v-102h103v-1126h-410v409h-409v-409h-410zM102 0h205v410h615v-410h204v922h-102v102h-102v102h-103v103h103v205h-103v102h-102v102h-205v-102h-102v-102h-103v-205h103v-103h-103v-102 h-102v-102h-103v-922zM307 614v205h103v103h102v102h205v-102h102v-103h103v-205h-615zM512 717h205v102h-205v-102zM512 1229h205v102h-205v-102z" />
<glyph unicode="&#xe3;" d="M0 -102v1126h102v102h-102v410h102v102h103v103h512v-103h102v103h410v-410h-103v-102h-102v-103h102v-102h103v-1126h-410v409h-409v-409h-410zM102 0h205v410h615v-410h204v922h-102v102h-102v102h-103v103h103v102h102v103h102v204h-204v-102h-103v-102h-102v102h-103 v102h-307v-102h-102v-102h-103v-205h205v102h103v103h102v-103h102v-102h-204v-103h-103v-102h-102v-102h-103v-922zM307 614v205h103v103h102v102h205v-102h102v-103h103v-205h-615zM512 717h205v102h-205v-102z" />
<glyph unicode="&#xe4;" d="M0 -102v1126h102v102h103v103h102v102h-102v410h819v-410h-102v-102h102v-103h102v-102h103v-1126h-410v409h-409v-409h-410zM102 0h205v410h615v-410h204v922h-102v102h-102v102h-103v103h-409v-103h-103v-102h-102v-102h-103v-922zM307 614v205h103v103h102v102h205 v-102h102v-103h103v-205h-615zM307 1434h205v204h-205v-204zM512 717h205v102h-205v-102zM717 1434h205v204h-205v-204z" />
<glyph unicode="&#xe5;" d="M0 -102v1126h102v102h103v103h102v409h103v103h409v-103h103v-409h102v-103h102v-102h103v-1126h-410v409h-409v-409h-410zM102 0h205v410h615v-410h204v922h-102v102h-102v102h-103v103h-102v102h102v205h-102v102h-205v-102h-102v-205h102v-102h-102v-103h-103v-102 h-102v-102h-103v-922zM307 614v205h103v103h102v102h205v-102h102v-103h103v-205h-615zM512 717h205v102h-205v-102z" />
<glyph unicode="&#xe6;" d="M0 -102v1228h102v103h103v102h102v103h103v102h819v-410h-410v-204h307v-410h-307v-205h410v-409h-1229zM102 0h205v410h205v-410h614v205h-409v409h307v205h-307v410h409v205h-614v-103h-102v-102h-103v-103h-102v-102h-103v-1024zM307 614h205v410h-102v-102h-103v-308 z" />
<glyph unicode="&#xe7;" d="M0 307v1024h102v103h103v102h819v-102h102v-103h103v-409h-410v102h-102v102h-205v-102h-102v-410h102v-102h205v102h102v103h410v-410h-103v-102h-102v-103h-102v-307h-103v-102h-512v409h-102v103h-103v102h-102zM102 410h103v-103h102v-102h205v-103h102v-102h-204 v-205h307v103h102v204h-102v103h205v102h102v103h102v204h-204v-102h-103v-102h-409v102h-103v614h103v103h409v-103h103v-102h204v205h-102v102h-102v103h-615v-103h-102v-102h-103v-819z" />
<glyph unicode="&#xe8;" d="M0 -102v1433h205v410h409v-103h103v-102h102v-205h410v-409h-205v-410h-614v-205h819v-409h-1229zM102 0h1024v205h-819v409h615v205h-615v205h819v205h-409v205h-103v102h-102v102h-205v-204h103v-103h102v-102h-410v-1229z" />
<glyph unicode="&#xe9;" d="M0 -102v1433h410v205h102v102h102v103h410v-410h205v-409h-205v-410h-614v-205h819v-409h-1229zM102 0h1024v205h-819v409h615v205h-615v205h819v205h-409v102h102v103h103v204h-205v-102h-103v-102h-102v-205h-410v-1229z" />
<glyph unicode="&#xea;" d="M0 -102v1433h205v205h102v102h103v103h409v-103h103v-102h102v-205h205v-409h-205v-410h-614v-205h819v-409h-1229zM102 0h1024v205h-819v409h615v205h-615v205h819v205h-204v205h-103v102h-102v102h-205v-102h-102v-102h-103v-205h-205v-1229zM512 1229h205v102h-205 v-102z" />
<glyph unicode="&#xeb;" d="M0 -102v1433h205v410h819v-410h205v-409h-205v-410h-614v-205h819v-409h-1229zM102 0h1024v205h-819v409h615v205h-615v205h819v205h-1024v-1229zM307 1434h205v204h-205v-204zM717 1434h205v204h-205v-204z" />
<glyph unicode="&#xec;" d="M205 -102v409h205v615h-205v819h409v-103h103v-102h102v-205h205v-409h-205v-615h205v-409h-819zM307 0h615v205h-205v819h205v205h-205v205h-103v102h-102v102h-205v-204h103v-103h102v-102h-205v-205h205v-819h-205v-205z" />
<glyph unicode="&#xed;" d="M205 -102v409h205v615h-205v409h205v205h102v102h102v103h410v-819h-205v-615h205v-409h-819zM307 0h615v205h-205v819h205v205h-205v102h102v103h103v204h-205v-102h-103v-102h-102v-205h-205v-205h205v-819h-205v-205z" />
<glyph unicode="&#xee;" d="M205 -102v409h205v615h-205v614h102v102h103v103h409v-103h103v-102h102v-614h-205v-615h205v-409h-819zM307 0h615v205h-205v819h205v410h-103v102h-102v102h-205v-102h-102v-102h-103v-410h205v-819h-205v-205zM512 1229h205v102h-205v-102z" />
<glyph unicode="&#xef;" d="M205 -102v409h205v615h-205v819h819v-819h-205v-615h205v-409h-819zM307 0h615v205h-205v819h205v205h-615v-205h205v-819h-205v-205zM307 1434h205v204h-205v-204zM717 1434h205v204h-205v-204z" />
<glyph unicode="&#xf0;" d="M0 512v410h205v614h819v-102h102v-103h103v-1229h-103v-102h-102v-102h-819v614h-205zM102 614h205v-614h615v102h102v103h102v1024h-102v102h-102v103h-615v-615h-205v-205zM512 205v409h205v205h-205v410h307v-103h103v-819h-103v-102h-307zM614 307h103v103h102v102 h-205v-205zM614 922h205v102h-102v102h-103v-204z" />
<glyph unicode="&#xf1;" d="M0 -102v1638h102v102h103v103h512v-103h102v103h410v-1843h-410v307h-102v102h-103v103h-102v102h-102v-614h-410zM102 0h205v819h103v-102h102v-103h102v-102h103v-102h102v-103h103v-307h204v1229h-204v102h102v103h102v204h-204v-102h-103v-102h-102v102h-103v102 h-307v-102h-102v-102h-103v-1434zM307 1126v205h103v103h102v-103h102v-102h308v-615h-103v103h-102v102h-103v103h-102v102h-102v102h-103zM614 1024h103v-102h102v204h-205v-102z" />
<glyph unicode="&#xf2;" d="M0 102v1024h102v103h103v512h409v-103h103v-102h102v-205h205v-102h102v-103h103v-1024h-103v-102h-102v-102h-819v102h-103v102h-102zM102 205h103v-103h102v-102h615v102h102v103h102v819h-102v102h-102v103h-205v205h-103v102h-102v102h-205v-204h103v-103h102v-102 h-205v-103h-102v-102h-103v-819zM307 307v615h103v102h409v-102h103v-615h-103v-102h-409v102h-103zM410 410h102v-103h205v103h102v409h-102v103h-205v-103h-102v-409z" />
<glyph unicode="&#xf3;" d="M0 102v1024h102v103h103v102h205v205h102v102h102v103h410v-512h102v-103h103v-1024h-103v-102h-102v-102h-819v102h-103v102h-102zM102 205h103v-103h102v-102h615v102h102v103h102v819h-102v102h-102v103h-205v102h102v103h103v204h-205v-102h-103v-102h-102v-205h-205 v-103h-102v-102h-103v-819zM307 307v615h103v102h409v-102h103v-615h-103v-102h-409v102h-103zM410 410h102v-103h205v103h102v409h-102v103h-205v-103h-102v-409z" />
<glyph unicode="&#xf4;" d="M0 102v1024h102v103h103v307h102v102h103v103h409v-103h103v-102h102v-307h102v-103h103v-1024h-103v-102h-102v-102h-819v102h-103v102h-102zM102 205h103v-103h102v-102h615v102h102v103h102v819h-102v102h-102v308h-103v102h-102v102h-205v-102h-102v-102h-103v-308 h-102v-102h-103v-819zM307 307v615h103v102h409v-102h103v-615h-103v-102h-409v102h-103zM410 410h102v-103h205v103h102v409h-102v103h-205v-103h-102v-409zM512 1229h205v102h-205v-102z" />
<glyph unicode="&#xf5;" d="M0 102v1434h102v102h103v103h512v-103h102v103h410v-410h-103v-205h103v-1024h-103v-102h-102v-102h-819v102h-103v102h-102zM102 205h103v-103h102v-102h615v102h102v103h102v819h-102v102h-102v205h102v103h102v204h-204v-102h-103v-102h-102v102h-103v102h-307v-102 h-102v-102h-103v-205h205v-103h-102v-102h-103v-819zM307 307v615h103v102h409v-102h103v-615h-103v-102h-409v102h-103zM307 1229h307v102h-102v103h-102v-103h-103v-102zM410 410h102v-103h205v103h102v409h-102v103h-205v-103h-102v-409z" />
<glyph unicode="&#xf6;" d="M0 102v1024h102v103h103v512h819v-512h102v-103h103v-1024h-103v-102h-102v-102h-819v102h-103v102h-102zM102 205h103v-103h102v-102h615v102h102v103h102v819h-102v102h-102v103h-615v-103h-102v-102h-103v-819zM307 307v615h103v102h409v-102h103v-615h-103v-102h-409 v102h-103zM307 1434h205v204h-205v-204zM410 410h102v-103h205v103h102v409h-102v103h-205v-103h-102v-409zM717 1434h205v204h-205v-204z" />
<glyph unicode="&#xf7;" d="M0 512v410h410v409h409v-409h410v-410h-410v-410h-409v410h-410zM102 614h1024v205h-1024v-205zM512 205h205v205h-205v-205zM512 1024h205v205h-205v-205z" />
<glyph unicode="&#xf8;" d="M0 -102v1433h102v103h103v102h1024v-1434h-103v-102h-102v-102h-1024zM102 0h820v102h102v103h102v1229h-819v-103h-102v-102h-103v-1229zM307 614v512h103v103h409v-205h-102v-102h-103v-103h-102v-102h-102v-103h-103zM410 205v205h102v102h102v102h103v103h102v102 h103v-512h-103v-102h-409zM410 922h102v102h102v102h-102v-102h-102v-102zM614 307h103v103h102v102h-102v-102h-103v-103z" />
<glyph unicode="&#xf9;" d="M0 102v1229h205v410h409v-103h103v-102h102v-205h410v-1229h-103v-102h-102v-102h-819v102h-103v102h-102zM102 205h103v-103h102v-102h615v102h102v103h102v1024h-204v-922h-103v-102h-409v102h-103v922h-205v-1024zM307 1434h103v-103h102v-102h205v205h-103v102h-102 v102h-205v-204zM410 410h102v-103h205v103h102v716h-409v-716z" />
<glyph unicode="&#xfa;" d="M0 102v1229h410v205h102v102h102v103h410v-410h205v-1229h-103v-102h-102v-102h-819v102h-103v102h-102zM102 205h103v-103h102v-102h615v102h102v103h102v1024h-204v-922h-103v-102h-409v102h-103v922h-205v-1024zM410 410h102v-103h205v103h102v716h-409v-716z M512 1229h205v102h102v103h103v204h-205v-102h-103v-102h-102v-205z" />
<glyph unicode="&#xfb;" d="M0 102v1229h205v205h102v102h103v103h409v-103h103v-102h102v-205h205v-1229h-103v-102h-102v-102h-819v102h-103v102h-102zM102 205h103v-103h102v-102h615v102h102v103h102v1024h-204v205h-103v102h-102v102h-205v-102h-102v-102h-103v-205h-205v-1024zM307 307v922 h205v102h205v-102h205v-922h-103v-102h-409v102h-103zM410 410h102v-103h205v103h102v716h-409v-716z" />
<glyph unicode="&#xfc;" d="M0 102v1229h205v410h819v-410h205v-1229h-103v-102h-102v-102h-819v102h-103v102h-102zM102 205h103v-103h102v-102h615v102h102v103h102v1024h-204v-922h-103v-102h-409v102h-103v922h-205v-1024zM307 1434h205v204h-205v-204zM410 410h102v-103h205v103h102v921h-409 v-921zM717 1434h205v204h-205v-204z" />
<glyph unicode="&#xfd;" d="M0 717v614h410v205h102v102h102v103h410v-410h205v-614h-103v-103h-102v-102h-102v-102h-103v-512h-409v512h-103v102h-102v102h-103v103h-102zM102 819h103v-102h102v-103h103v-102h102v-512h205v512h102v102h103v103h102v102h102v410h-204v-307h-103v-103h-102v-102 h-205v102h-102v103h-103v307h-205v-410zM410 1024h102v-102h205v102h102v102h-409v-102zM512 1229h205v102h102v103h103v204h-205v-102h-103v-102h-102v-205z" />
<glyph unicode="&#xfe;" d="M205 -102v1638h409v-307h410v-103h102v-102h103v-614h-103v-103h-102v-102h-410v-307h-409zM307 0h205v307h410v103h102v102h102v410h-102v102h-102v102h-410v308h-205v-1434zM512 512v410h307v-103h103v-205h-103v-102h-307zM614 614h103v205h-103v-205z" />
<glyph unicode="&#xff;" d="M0 717v614h205v410h819v-410h205v-614h-103v-103h-102v-102h-102v-102h-103v-512h-409v512h-103v102h-102v102h-103v103h-102zM102 819h103v-102h102v-103h103v-102h102v-512h205v512h102v102h103v103h102v102h102v410h-204v-307h-103v-103h-102v-102h-205v102h-102v103 h-103v307h-205v-410zM307 1434h205v204h-205v-204zM410 1024h102v-102h205v102h102v307h-409v-307zM717 1434h205v204h-205v-204z" />
<glyph unicode="&#x152;" d="M0 102v1229h102v103h103v102h1024v-410h-410v-204h307v-410h-307v-205h410v-409h-1024v102h-103v102h-102zM102 205h103v-103h102v-102h819v205h-409v409h307v205h-307v410h409v205h-819v-103h-102v-102h-103v-1024zM307 307h103v-102h102v1024h-102v-103h-103v-819z" />
<glyph unicode="&#x153;" d="M0 102v1229h102v103h103v102h1024v-410h-410v-204h307v-410h-307v-205h410v-409h-1024v102h-103v102h-102zM102 205h103v-103h102v-102h819v205h-409v409h307v205h-307v410h409v205h-819v-103h-102v-102h-103v-1024zM307 307h103v-102h102v1024h-102v-103h-103v-819z" />
<glyph unicode="&#x178;" d="M0 717v614h205v410h819v-410h205v-614h-103v-103h-102v-102h-102v-102h-103v-512h-409v512h-103v102h-102v102h-103v103h-102zM102 819h103v-102h102v-103h103v-102h102v-512h205v512h102v102h103v103h102v102h102v410h-204v-307h-103v-103h-102v-102h-205v102h-102v103 h-103v307h-205v-410zM307 1434h205v204h-205v-204zM410 1024h102v-102h205v102h102v307h-409v-307zM717 1434h205v204h-205v-204z" />
<glyph unicode="&#x2c6;" d="M205 1126v410h102v102h103v103h409v-103h103v-102h102v-410h-819zM307 1229h205v102h205v-102h205v205h-103v102h-102v102h-205v-102h-102v-102h-103v-205z" />
<glyph unicode="&#x2dc;" d="M0 1126v410h102v102h103v103h512v-103h102v103h410v-410h-103v-102h-102v-103h-512v103h-102v-103h-410zM102 1229h205v102h103v103h102v-103h102v-102h308v102h102v103h102v204h-204v-102h-103v-102h-102v102h-103v102h-307v-102h-102v-102h-103v-205z" />
<glyph unicode="&#x2000;" horiz-adv-x="870" />
<glyph unicode="&#x2001;" horiz-adv-x="1741" />
<glyph unicode="&#x2002;" horiz-adv-x="870" />
<glyph unicode="&#x2003;" horiz-adv-x="1741" />
<glyph unicode="&#x2004;" horiz-adv-x="580" />
<glyph unicode="&#x2005;" horiz-adv-x="435" />
<glyph unicode="&#x2006;" horiz-adv-x="290" />
<glyph unicode="&#x2007;" horiz-adv-x="290" />
<glyph unicode="&#x2008;" horiz-adv-x="217" />
<glyph unicode="&#x2009;" horiz-adv-x="348" />
<glyph unicode="&#x200a;" horiz-adv-x="96" />
<glyph unicode="&#x2010;" d="M102 512v410h1024v-410h-1024zM205 614h819v205h-819v-205z" />
<glyph unicode="&#x2011;" d="M102 512v410h1024v-410h-1024zM205 614h819v205h-819v-205z" />
<glyph unicode="&#x2012;" d="M102 512v410h1024v-410h-1024zM205 614h819v205h-819v-205z" />
<glyph unicode="&#x2013;" d="M205 512v410h819v-410h-819zM307 614h615v205h-615v-205z" />
<glyph unicode="&#x2014;" d="M0 512v410h1229v-410h-1229zM102 614h1024v205h-1024v-205z" />
<glyph unicode="&#x2018;" d="M307 717v614h103v103h102v102h410v-819h-615zM410 819h409v205h-205v102h103v103h102v205h-205v-103h-102v-102h-102v-410z" />
<glyph unicode="&#x2019;" d="M307 717v819h615v-614h-103v-103h-102v-102h-410zM410 819h204v103h103v102h102v410h-409v-205h204v-103h-102v-102h-102v-205z" />
<glyph unicode="&#x201c;" d="M0 717v614h102v103h103v102h409v-205h103v103h102v102h410v-819h-1229zM102 819h410v205h-205v102h103v103h102v205h-205v-103h-102v-102h-103v-410zM717 819h409v205h-204v102h102v103h102v205h-204v-103h-103v-102h-102v-410z" />
<glyph unicode="&#x201d;" d="M0 717v819h1229v-614h-103v-103h-102v-102h-410v205h-102v-103h-102v-102h-410zM102 819h205v103h103v102h102v410h-410v-205h205v-103h-102v-102h-103v-205zM717 819h205v103h102v102h102v410h-409v-205h205v-103h-103v-102h-102v-205z" />
<glyph unicode="&#x2022;" d="M307 410v614h615v-614h-615zM410 512h409v410h-409v-410z" />
<glyph unicode="&#x202f;" horiz-adv-x="348" />
<glyph unicode="&#x2039;" d="M205 512v410h102v102h103v102h102v103h102v102h410v-1229h-410v103h-102v102h-102v103h-103v102h-102zM307 614h103v-102h102v-102h102v-103h103v-102h205v1024h-205v-103h-103v-102h-102v-102h-102v-103h-103v-205z" />
<glyph unicode="&#x203a;" d="M205 102v1229h409v-102h103v-103h102v-102h103v-102h102v-410h-102v-102h-103v-103h-102v-102h-103v-103h-409zM307 205h205v102h102v103h103v102h102v102h103v205h-103v103h-102v102h-103v102h-102v103h-205v-1024z" />
<glyph unicode="&#x205f;" horiz-adv-x="435" />
<glyph unicode="&#x20ac;" d="M0 512v410h205v409h102v103h103v102h614v-102h102v-103h103v-409h-205v-410h205v-410h-103v-102h-102v-102h-614v102h-103v102h-102v410h-205zM102 614h205v-409h103v-103h102v-102h410v102h102v103h102v205h-204v-103h-103v-102h-205v102h-102v307h410v205h-410v307h102 v103h205v-103h103v-102h204v205h-102v102h-102v103h-410v-103h-102v-102h-103v-410h-205v-205zM614 410h205v102h-205v-102zM614 922h205v102h-205v-102z" />
<glyph unicode="&#xe000;" horiz-adv-x="1536" d="M0 0v1536h1536v-1536h-1536z" />
</font>
</defs>
</svg>
