<?xml version="1.0" standalone="no"?>
<!DOCTYPE svg PUBLIC "-//W3C//DTD SVG 1.1//EN" "http://www.w3.org/Graphics/SVG/1.1/DTD/svg11.dtd" >
<svg xmlns="http://www.w3.org/2000/svg">
<metadata></metadata>
<defs>
<font id="camcorderregular" horiz-adv-x="1228" >
<font-face units-per-em="2048" ascent="1741" descent="-307" />
<missing-glyph horiz-adv-x="819" />
<glyph horiz-adv-x="2048" />
<glyph horiz-adv-x="2048" />
<glyph unicode="&#xd;" horiz-adv-x="2048" />
<glyph unicode=" "  horiz-adv-x="819" />
<glyph unicode="&#x09;" horiz-adv-x="819" />
<glyph unicode="&#xa0;" horiz-adv-x="819" />
<glyph unicode="!" horiz-adv-x="409" d="M102 0v205h205v-205h-205zM102 410v1024h205v-1024h-205z" />
<glyph unicode="&#x22;" horiz-adv-x="819" d="M102 1024v410h205v-410h-205zM512 1024v410h205v-410h-205z" />
<glyph unicode="#" d="M102 410v204h205v205h-205v205h205v205h205v-205h205v205h205v-205h204v-205h-204v-205h204v-204h-204v-205h-205v205h-205v-205h-205v205h-205zM512 614h205v205h-205v-205z" />
<glyph unicode="$" d="M102 205v205h205v-103h103v-102h102v409h-205v103h-102v102h-103v410h103v102h102v103h205v204h205v-204h205v-103h102v-102h102v-205h-204v102h-103v103h-102v-410h205v-102h102v-103h102v-409h-102v-103h-102v-102h-205v-205h-205v205h-205v102h-102v103h-103zM307 922 h103v-103h102v410h-102v-103h-103v-204zM717 205h102v102h103v205h-103v102h-102v-409z" />
<glyph unicode="%" d="M102 0v410h103v102h102v102h103v103h102v102h102v103h103v102h102v102h103v308h204v-410h-102v-102h-102v-103h-103v-102h-102v-103h-103v-102h-102v-102h-102v-103h-103v-307h-205zM102 1024v410h410v-410h-410zM717 0v410h409v-410h-409z" />
<glyph unicode="&#x26;" d="M102 205v409h103v103h102v102h-102v103h-103v307h103v102h102v103h307v-103h103v-102h102v-307h-102v-103h-103v-102h103v-103h205v103h204v-205h-102v-102h-102v-103h102v-102h102v-205h-204v102h-205v-102h-410v102h-102v103h-103zM307 307h103v-102h204v102h103v103 h-103v102h-102v102h-102v-102h-103v-205zM307 1024h103v-102h102v102h102v102h-102v103h-102v-103h-103v-102z" />
<glyph unicode="'" horiz-adv-x="409" d="M102 1024v410h205v-410h-205z" />
<glyph unicode="(" horiz-adv-x="819" d="M102 102v1229h103v103h102v102h103v102h307v-204h-205v-103h-102v-102h-103v-1024h103v-103h102v-102h205v-205h-307v103h-103v102h-102v102h-103z" />
<glyph unicode=")" horiz-adv-x="819" d="M102 0h205v102h103v103h102v1024h-102v102h-103v103h-205v204h308v-102h102v-102h102v-103h103v-1229h-103v-102h-102v-102h-102v-103h-308v205z" />
<glyph unicode="*" d="M102 614v205h205v103h-102v204h205v-102h102v205h205v-205h102v102h205v-204h-102v-103h204v-205h-204v-102h102v-205h-205v103h-102v-205h-205v205h-102v-103h-205v205h102v102h-205z" />
<glyph unicode="+" horiz-adv-x="1024" d="M102 614v205h308v307h204v-307h308v-205h-308v-307h-204v307h-308z" />
<glyph unicode="," horiz-adv-x="409" d="M102 -205v410h205v-410h-205z" />
<glyph unicode="-" horiz-adv-x="1024" d="M102 614v205h820v-205h-820z" />
<glyph unicode="." horiz-adv-x="409" d="M102 0v205h205v-205h-205z" />
<glyph unicode="/" d="M102 0v410h103v102h102v102h103v103h102v102h102v103h103v102h102v102h103v308h204v-410h-102v-102h-102v-103h-103v-102h-102v-103h-103v-102h-102v-102h-102v-103h-103v-307h-205z" />
<glyph unicode="0" d="M102 205v1024h103v102h102v103h615v-103h102v-102h102v-1024h-102v-103h-102v-102h-615v102h-102v103h-103zM307 614h103v103h102v102h102v103h103v102h102v205h-409v-103h-103v-512zM410 205h409v102h103v512h-103v-102h-102v-103h-103v-102h-102v-102h-102v-205z" />
<glyph unicode="1" horiz-adv-x="819" d="M102 0v205h205v819h-205v205h103v102h102v103h205v-1229h205v-205h-615z" />
<glyph unicode="2" d="M102 0v205h103v102h102v103h103v102h102v102h102v103h103v102h102v103h103v204h-103v103h-409v-103h-103v-102h-205v205h103v102h102v103h615v-103h102v-102h102v-410h-102v-102h-102v-103h-103v-102h-102v-102h-103v-103h-102v-102h614v-205h-1024z" />
<glyph unicode="3" d="M102 205v205h205v-103h103v-102h409v102h103v205h-103v102h-307v205h307v103h103v204h-103v103h-409v-103h-103v-102h-205v205h103v102h102v103h615v-103h102v-102h102v-410h-102v-205h102v-409h-102v-103h-102v-102h-615v102h-102v103h-103z" />
<glyph unicode="4" d="M102 410v409h103v103h102v102h103v102h102v103h102v102h103v103h205v-820h204v-204h-204v-410h-205v410h-615zM307 614h410v410h-103v-102h-102v-103h-102v-102h-103v-103z" />
<glyph unicode="5" d="M102 205v205h205v-103h103v-102h409v102h103v410h-103v102h-717v615h1024v-205h-819v-205h615v-102h102v-103h102v-614h-102v-103h-102v-102h-615v102h-102v103h-103z" />
<glyph unicode="6" d="M102 205v1024h103v102h102v103h615v-103h102v-102h102v-205h-204v102h-103v103h-409v-103h-103v-307h615v-102h102v-103h102v-409h-102v-103h-102v-102h-615v102h-102v103h-103zM307 307h103v-102h409v102h103v205h-103v102h-512v-307z" />
<glyph unicode="7" d="M102 1229v205h1024v-512h-102v-103h-102v-102h-103v-103h-102v-102h-103v-102h-102v-410h-205v512h103v102h102v103h102v102h103v103h102v102h103v205h-820z" />
<glyph unicode="8" d="M102 205v409h103v205h-103v410h103v102h102v103h615v-103h102v-102h102v-410h-102v-205h102v-409h-102v-103h-102v-102h-615v102h-102v103h-103zM307 307h103v-102h409v102h103v205h-103v102h-409v-102h-103v-205zM307 922h103v-103h409v103h103v204h-103v103h-409v-103 h-103v-204z" />
<glyph unicode="9" d="M102 205v205h205v-103h103v-102h409v102h103v307h-615v103h-102v102h-103v410h103v102h102v103h615v-103h102v-102h102v-1024h-102v-103h-102v-102h-615v102h-102v103h-103zM307 922h103v-103h512v307h-103v103h-409v-103h-103v-204z" />
<glyph unicode=":" horiz-adv-x="409" d="M102 0v205h205v-205h-205zM102 819v205h205v-205h-205z" />
<glyph unicode=";" horiz-adv-x="409" d="M102 -205v410h205v-410h-205zM102 819v205h205v-205h-205z" />
<glyph unicode="&#x3c;" horiz-adv-x="819" d="M102 614v205h103v103h102v102h103v102h102v103h205v-205h-103v-102h-102v-103h-102v-205h102v-102h102v-102h103v-205h-205v102h-102v103h-103v102h-102v102h-103z" />
<glyph unicode="=" horiz-adv-x="1024" d="M102 410v204h820v-204h-820zM102 819v205h820v-205h-820z" />
<glyph unicode="&#x3e;" horiz-adv-x="819" d="M102 205v205h103v102h102v102h103v205h-103v103h-102v102h-103v205h205v-103h103v-102h102v-102h102v-103h103v-205h-103v-102h-102v-102h-102v-103h-103v-102h-205z" />
<glyph unicode="?" d="M102 1024v205h103v102h102v103h615v-103h102v-102h102v-410h-102v-102h-102v-103h-103v-102h-102v-102h-205v204h102v103h103v102h102v103h103v204h-103v103h-409v-103h-103v-102h-205zM512 0v205h205v-205h-205z" />
<glyph unicode="@" d="M102 205v1024h103v102h102v103h615v-103h102v-102h102v-717h-102v-102h-512v102h-102v410h102v102h307v-410h103v512h-103v103h-409v-103h-103v-819h103v-102h614v-205h-717v102h-102v103h-103z" />
<glyph unicode="A" d="M102 0v1024h103v102h102v103h103v102h102v103h205v-103h102v-102h103v-103h102v-102h102v-1024h-204v410h-615v-410h-205zM307 614h615v308h-103v102h-102v102h-205v-102h-102v-102h-103v-308z" />
<glyph unicode="B" d="M102 0v1434h820v-103h102v-102h102v-410h-102v-205h102v-409h-102v-103h-102v-102h-820zM307 205h512v102h103v205h-103v102h-512v-409zM307 819h512v103h103v204h-103v103h-512v-410z" />
<glyph unicode="C" d="M102 205v1024h103v102h102v103h615v-103h102v-102h102v-205h-204v102h-103v103h-409v-103h-103v-819h103v-102h409v102h103v103h204v-205h-102v-103h-102v-102h-615v102h-102v103h-103z" />
<glyph unicode="D" d="M102 0v1434h820v-103h102v-102h102v-1024h-102v-103h-102v-102h-820zM307 205h512v102h103v819h-103v103h-512v-1024z" />
<glyph unicode="E" d="M102 0v1434h1024v-205h-819v-410h615v-205h-615v-409h819v-205h-1024z" />
<glyph unicode="F" d="M102 0v1434h1024v-205h-819v-410h615v-205h-615v-614h-205z" />
<glyph unicode="G" d="M102 205v1024h103v102h102v103h615v-103h102v-102h102v-205h-204v102h-103v103h-409v-103h-103v-819h103v-102h409v102h103v307h-410v205h614v-614h-102v-103h-102v-102h-615v102h-102v103h-103z" />
<glyph unicode="H" d="M102 0v1434h205v-615h615v615h204v-1434h-204v614h-615v-614h-205z" />
<glyph unicode="I" horiz-adv-x="819" d="M102 0v205h205v1024h-205v205h615v-205h-205v-1024h205v-205h-615z" />
<glyph unicode="J" d="M102 205v205h205v-103h103v-102h409v102h103v1127h204v-1229h-102v-103h-102v-102h-615v102h-102v103h-103z" />
<glyph unicode="K" d="M102 0v1434h205v-615h103v103h102v102h102v102h103v103h102v102h103v103h204v-205h-102v-103h-102v-102h-103v-102h-102v-103h-103v-205h103v-102h102v-102h103v-103h102v-102h102v-205h-204v102h-103v103h-102v102h-103v103h-102v102h-102v102h-103v-614h-205z" />
<glyph unicode="L" d="M102 0v1434h205v-1229h819v-205h-1024z" />
<glyph unicode="M" d="M102 0v1434h205v-205h103v-103h102v-102h205v102h102v103h103v205h204v-1434h-204v922h-103v-103h-102v-102h-205v102h-102v103h-103v-922h-205z" />
<glyph unicode="N" d="M102 0v1434h205v-308h103v-102h102v-102h102v-103h103v-102h102v-103h103v820h204v-1434h-204v307h-103v103h-102v102h-103v102h-102v103h-102v102h-103v-819h-205z" />
<glyph unicode="O" d="M102 205v1024h103v102h102v103h615v-103h102v-102h102v-1024h-102v-103h-102v-102h-615v102h-102v103h-103zM307 307h103v-102h409v102h103v819h-103v103h-409v-103h-103v-819z" />
<glyph unicode="P" d="M102 0v1434h820v-103h102v-102h102v-410h-102v-102h-102v-103h-615v-614h-205zM307 819h512v103h103v204h-103v103h-512v-410z" />
<glyph unicode="Q" d="M102 205v1024h103v102h102v103h615v-103h102v-102h102v-922h-102v-102h102v-205h-204v102h-103v-102h-512v102h-102v103h-103zM307 307h103v-102h307v102h-103v205h205v-102h103v716h-103v103h-409v-103h-103v-819z" />
<glyph unicode="R" d="M102 0v1434h820v-103h102v-102h102v-410h-102v-102h-102v-103h-205v-102h102v-102h103v-103h102v-102h102v-205h-204v102h-103v103h-102v102h-103v103h-102v102h-102v102h-103v-614h-205zM307 819h512v103h103v204h-103v103h-512v-410z" />
<glyph unicode="S" d="M102 205v205h205v-103h103v-102h409v102h103v205h-103v102h-512v103h-102v102h-103v410h103v102h102v103h615v-103h102v-102h102v-205h-204v102h-103v103h-409v-103h-103v-204h103v-103h512v-102h102v-103h102v-409h-102v-103h-102v-102h-615v102h-102v103h-103z" />
<glyph unicode="T" d="M102 1229v205h1024v-205h-409v-1229h-205v1229h-410z" />
<glyph unicode="U" d="M102 205v1229h205v-1127h103v-102h409v102h103v1127h204v-1229h-102v-103h-102v-102h-615v102h-102v103h-103z" />
<glyph unicode="V" d="M102 307v1127h205v-1024h103v-103h102v-102h205v102h102v103h103v1024h204v-1127h-102v-102h-102v-103h-103v-102h-409v102h-103v103h-102v102h-103z" />
<glyph unicode="W" d="M102 205v1229h205v-1127h205v512h205v-512h205v1127h204v-1229h-102v-103h-102v-102h-205v102h-205v-102h-205v102h-102v103h-103z" />
<glyph unicode="X" d="M102 0v410h103v102h102v102h103v205h-103v103h-102v102h-103v410h205v-308h103v-102h102v-102h205v102h102v102h103v308h204v-410h-102v-102h-102v-103h-103v-205h103v-102h102v-102h102v-410h-204v307h-103v103h-102v102h-205v-102h-102v-103h-103v-307h-205z" />
<glyph unicode="Y" d="M102 1024v410h205v-308h103v-102h102v-102h205v102h102v102h103v308h204v-410h-102v-102h-102v-103h-103v-102h-102v-717h-205v717h-102v102h-103v103h-102v102h-103z" />
<glyph unicode="Z" d="M102 0v410h103v102h102v102h103v103h102v102h102v103h103v102h102v102h103v103h-820v205h1024v-410h-102v-102h-102v-103h-103v-102h-102v-103h-103v-102h-102v-102h-102v-103h-103v-102h819v-205h-1024z" />
<glyph unicode="[" horiz-adv-x="819" d="M102 -205v1843h615v-204h-410v-1434h410v-205h-615z" />
<glyph unicode="\" d="M102 1024v410h205v-308h103v-102h102v-102h102v-103h103v-102h102v-103h103v-102h102v-102h102v-410h-204v307h-103v103h-102v102h-103v102h-102v103h-102v102h-103v103h-102v102h-103z" />
<glyph unicode="]" horiz-adv-x="819" d="M102 0h410v1434h-410v204h615v-1843h-615v205z" />
<glyph unicode="_" d="M102 0h1024v-205h-1024v205z" />
<glyph unicode="`" horiz-adv-x="614" d="M102 1434v204h205v-102h103v-102h102v-205h-205v102h-102v103h-103z" />
<glyph unicode="a" d="M102 0v1024h103v102h102v103h103v102h102v103h205v-103h102v-102h103v-103h102v-102h102v-1024h-204v410h-615v-410h-205zM307 614h615v308h-103v102h-102v102h-205v-102h-102v-102h-103v-308z" />
<glyph unicode="b" d="M102 0v1434h820v-103h102v-102h102v-410h-102v-205h102v-409h-102v-103h-102v-102h-820zM307 205h512v102h103v205h-103v102h-512v-409zM307 819h512v103h103v204h-103v103h-512v-410z" />
<glyph unicode="c" d="M102 205v1024h103v102h102v103h615v-103h102v-102h102v-205h-204v102h-103v103h-409v-103h-103v-819h103v-102h409v102h103v103h204v-205h-102v-103h-102v-102h-615v102h-102v103h-103z" />
<glyph unicode="d" d="M102 0v1434h820v-103h102v-102h102v-1024h-102v-103h-102v-102h-820zM307 205h512v102h103v819h-103v103h-512v-1024z" />
<glyph unicode="e" d="M102 0v1434h1024v-205h-819v-410h615v-205h-615v-409h819v-205h-1024z" />
<glyph unicode="f" d="M102 0v1434h1024v-205h-819v-410h615v-205h-615v-614h-205z" />
<glyph unicode="g" d="M102 205v1024h103v102h102v103h615v-103h102v-102h102v-205h-204v102h-103v103h-409v-103h-103v-819h103v-102h409v102h103v307h-410v205h614v-614h-102v-103h-102v-102h-615v102h-102v103h-103z" />
<glyph unicode="h" d="M102 0v1434h205v-615h615v615h204v-1434h-204v614h-615v-614h-205z" />
<glyph unicode="i" horiz-adv-x="819" d="M102 0v205h205v1024h-205v205h615v-205h-205v-1024h205v-205h-615z" />
<glyph unicode="j" d="M102 205v205h205v-103h103v-102h409v102h103v1127h204v-1229h-102v-103h-102v-102h-615v102h-102v103h-103z" />
<glyph unicode="k" d="M102 0v1434h205v-615h103v103h102v102h102v102h103v103h102v102h103v103h204v-205h-102v-103h-102v-102h-103v-102h-102v-103h-103v-205h103v-102h102v-102h103v-103h102v-102h102v-205h-204v102h-103v103h-102v102h-103v103h-102v102h-102v102h-103v-614h-205z" />
<glyph unicode="l" d="M102 0v1434h205v-1229h819v-205h-1024z" />
<glyph unicode="m" d="M102 0v1434h205v-205h103v-103h102v-102h205v102h102v103h103v205h204v-1434h-204v922h-103v-103h-102v-102h-205v102h-102v103h-103v-922h-205z" />
<glyph unicode="n" d="M102 0v1434h205v-308h103v-102h102v-102h102v-103h103v-102h102v-103h103v820h204v-1434h-204v307h-103v103h-102v102h-103v102h-102v103h-102v102h-103v-819h-205z" />
<glyph unicode="o" d="M102 205v1024h103v102h102v103h615v-103h102v-102h102v-1024h-102v-103h-102v-102h-615v102h-102v103h-103zM307 307h103v-102h409v102h103v819h-103v103h-409v-103h-103v-819z" />
<glyph unicode="p" d="M102 0v1434h820v-103h102v-102h102v-410h-102v-102h-102v-103h-615v-614h-205zM307 819h512v103h103v204h-103v103h-512v-410z" />
<glyph unicode="q" d="M102 205v1024h103v102h102v103h615v-103h102v-102h102v-922h-102v-102h102v-205h-204v102h-103v-102h-512v102h-102v103h-103zM307 307h103v-102h307v102h-103v205h205v-102h103v716h-103v103h-409v-103h-103v-819z" />
<glyph unicode="r" d="M102 0v1434h820v-103h102v-102h102v-410h-102v-102h-102v-103h-205v-102h102v-102h103v-103h102v-102h102v-205h-204v102h-103v103h-102v102h-103v103h-102v102h-102v102h-103v-614h-205zM307 819h512v103h103v204h-103v103h-512v-410z" />
<glyph unicode="s" d="M102 205v205h205v-103h103v-102h409v102h103v205h-103v102h-512v103h-102v102h-103v410h103v102h102v103h615v-103h102v-102h102v-205h-204v102h-103v103h-409v-103h-103v-204h103v-103h512v-102h102v-103h102v-409h-102v-103h-102v-102h-615v102h-102v103h-103z" />
<glyph unicode="t" d="M102 1229v205h1024v-205h-409v-1229h-205v1229h-410z" />
<glyph unicode="u" d="M102 205v1229h205v-1127h103v-102h409v102h103v1127h204v-1229h-102v-103h-102v-102h-615v102h-102v103h-103z" />
<glyph unicode="v" d="M102 307v1127h205v-1024h103v-103h102v-102h205v102h102v103h103v1024h204v-1127h-102v-102h-102v-103h-103v-102h-409v102h-103v103h-102v102h-103z" />
<glyph unicode="w" d="M102 205v1229h205v-1127h205v512h205v-512h205v1127h204v-1229h-102v-103h-102v-102h-205v102h-205v-102h-205v102h-102v103h-103z" />
<glyph unicode="x" d="M102 0v410h103v102h102v102h103v205h-103v103h-102v102h-103v410h205v-308h103v-102h102v-102h205v102h102v102h103v308h204v-410h-102v-102h-102v-103h-103v-205h103v-102h102v-102h102v-410h-204v307h-103v103h-102v102h-205v-102h-102v-103h-103v-307h-205z" />
<glyph unicode="y" d="M102 1024v410h205v-308h103v-102h102v-102h205v102h102v102h103v308h204v-410h-102v-102h-102v-103h-103v-102h-102v-717h-205v717h-102v102h-103v103h-102v102h-103z" />
<glyph unicode="z" d="M102 0v410h103v102h102v102h103v103h102v102h102v103h103v102h102v102h103v103h-820v205h1024v-410h-102v-102h-102v-103h-103v-102h-102v-103h-103v-102h-102v-102h-102v-103h-103v-102h819v-205h-1024z" />
<glyph unicode="{" horiz-adv-x="1024" d="M102 614v205h103v103h102v512h103v102h102v102h410v-204h-308v-103h-102v-512h-102v-205h102v-512h102v-102h308v-205h-410v103h-102v102h-103v512h-102v102h-103z" />
<glyph unicode="|" horiz-adv-x="409" d="M102 -205v1843h205v-1843h-205z" />
<glyph unicode="}" horiz-adv-x="1024" d="M102 0h308v102h102v512h102v205h-102v512h-102v103h-308v204h410v-102h102v-102h103v-512h102v-103h103v-205h-103v-102h-102v-512h-103v-102h-102v-103h-410v205z" />
<glyph unicode="~" d="M102 512v205h103v102h102v103h307v-103h103v-102h102v102h103v103h204v-205h-102v-103h-102v-102h-308v102h-102v103h-102v-103h-103v-102h-205z" />
<glyph unicode="&#xa1;" horiz-adv-x="409" d="M102 0v1024h205v-1024h-205zM102 1229v205h205v-205h-205z" />
<glyph unicode="&#xa2;" d="M102 410v614h103v102h102v103h205v205h205v-205h205v-103h102v-102h102v-205h-204v103h-103v102h-102v-614h102v102h103v102h204v-204h-102v-103h-102v-102h-205v-205h-205v205h-205v102h-102v103h-103zM307 512h103v-102h102v614h-102v-102h-103v-410z" />
<glyph unicode="&#xa3;" d="M102 0v307h103v103h102v204h-205v205h205v410h103v102h102v103h410v-103h102v-102h102v-205h-204v102h-103v103h-205v-103h-102v-307h410v-205h-410v-307h-102v-102h716v-205h-1024z" />
<glyph unicode="&#xa4;" d="M102 205v205h103v102h-103v410h103v102h-103v205h205v-103h103v103h409v-103h103v103h204v-205h-102v-102h102v-410h-102v-102h102v-205h-204v102h-103v-102h-409v102h-103v-102h-205zM307 614h103v-102h102v-102h205v102h102v102h103v205h-103v103h-102v102h-205v-102 h-102v-103h-103v-205z" />
<glyph unicode="&#xa5;" d="M102 1024v410h205v-308h103v-102h102v-102h205v102h102v102h103v308h204v-410h-102v-102h-102v-103h-103v-102h-102v-103h307v-204h-307v-410h-205v410h-307v204h307v103h-102v102h-103v103h-102v102h-103z" />
<glyph unicode="&#xa6;" horiz-adv-x="409" d="M102 -205v819h205v-819h-205zM102 819v819h205v-819h-205z" />
<glyph unicode="&#xa8;" horiz-adv-x="819" d="M102 1434v204h205v-204h-205zM512 1434v204h205v-204h-205z" />
<glyph unicode="&#xab;" horiz-adv-x="1024" d="M102 614v205h103v103h102v102h205v-205h-102v-205h102v-204h-205v102h-102v102h-103zM512 614v205h102v103h103v102h205v-205h-103v-205h103v-204h-205v102h-103v102h-102z" />
<glyph unicode="&#xad;" horiz-adv-x="1024" d="M102 614v205h820v-205h-820z" />
<glyph unicode="&#xb1;" horiz-adv-x="1024" d="M102 0v205h820v-205h-820zM102 614v205h308v307h204v-307h308v-205h-308v-307h-204v307h-308z" />
<glyph unicode="&#xb4;" horiz-adv-x="614" d="M102 1229v205h103v102h102v102h205v-204h-102v-103h-103v-102h-205z" />
<glyph unicode="&#xb8;" horiz-adv-x="614" d="M102 0h205v102h-102v103h205v-103h102v-204h-102v-103h-308v205z" />
<glyph unicode="&#xbb;" horiz-adv-x="1024" d="M102 410v204h103v205h-103v205h205v-102h103v-103h102v-205h-102v-102h-103v-102h-205zM512 410v204h102v205h-102v205h205v-102h102v-103h103v-205h-103v-102h-102v-102h-205z" />
<glyph unicode="&#xbf;" d="M102 205v409h103v103h102v102h103v103h102v102h205v-205h-103v-102h-102v-103h-102v-102h-103v-205h103v-102h409v102h103v103h204v-205h-102v-103h-102v-102h-615v102h-102v103h-103zM512 1229v205h205v-205h-205z" />
<glyph unicode="&#xc0;" d="M102 0v922h103v102h102v102h103v103h102v102h-102v103h-103v204h205v-102h102v-102h103v-205h102v-103h103v-102h102v-102h102v-922h-204v410h-615v-410h-205zM307 614h615v205h-103v103h-102v102h-205v-102h-102v-103h-103v-205z" />
<glyph unicode="&#xc1;" d="M102 0v922h103v102h102v102h103v103h102v205h102v102h103v102h205v-204h-103v-103h-102v-102h102v-103h103v-102h102v-102h102v-922h-204v410h-615v-410h-205zM307 614h615v205h-103v103h-102v102h-205v-102h-102v-103h-103v-205z" />
<glyph unicode="&#xc2;" d="M102 0v922h103v102h102v102h103v103h-103v205h103v102h102v102h205v-102h102v-102h103v-205h-103v-103h103v-102h102v-102h102v-922h-204v410h-615v-410h-205zM307 614h615v205h-103v103h-102v102h-205v-102h-102v-103h-103v-205zM512 1229h205v102h-205v-102z" />
<glyph unicode="&#xc3;" d="M102 0v922h103v102h102v102h103v103h204v102h-102v103h-102v-103h-103v-102h-205v205h103v102h102v102h307v-102h103v-102h102v102h103v102h204v-204h-102v-103h-102v-102h-103v-103h103v-102h102v-102h102v-922h-204v410h-615v-410h-205zM307 614h615v205h-103v103h-102 v102h-205v-102h-102v-103h-103v-205z" />
<glyph unicode="&#xc4;" d="M102 0v922h103v102h102v102h103v103h409v-103h103v-102h102v-102h102v-922h-204v410h-615v-410h-205zM307 614h615v205h-103v103h-102v102h-205v-102h-102v-103h-103v-205zM307 1434v204h205v-204h-205zM717 1434v204h205v-204h-205z" />
<glyph unicode="&#xc5;" d="M102 0v922h103v102h102v102h103v103h102v102h-102v205h102v102h205v-102h102v-205h-102v-102h102v-103h103v-102h102v-102h102v-922h-204v410h-615v-410h-205zM307 614h615v205h-103v103h-102v102h-205v-102h-102v-103h-103v-205z" />
<glyph unicode="&#xc6;" d="M102 0v1024h103v102h102v103h103v102h102v103h614v-205h-409v-410h307v-205h-307v-409h409v-205h-614v410h-205v-410h-205zM307 614h205v410h-102v-102h-103v-308z" />
<glyph unicode="&#xc7;" d="M102 410v819h103v102h102v103h615v-103h102v-102h102v-205h-204v102h-103v103h-409v-103h-103v-614h103v-102h409v102h103v102h204v-204h-102v-103h-102v-102h-205v-103h102v-204h-102v-103h-307v205h204v102h-102v103h-205v102h-102v103h-103z" />
<glyph unicode="&#xc8;" d="M102 0v1229h410v102h-102v103h-103v204h205v-102h102v-102h103v-205h409v-205h-819v-205h615v-205h-615v-409h819v-205h-1024z" />
<glyph unicode="&#xc9;" d="M102 0v1229h410v205h102v102h103v102h205v-204h-103v-103h-102v-102h409v-205h-819v-205h615v-205h-615v-409h819v-205h-1024z" />
<glyph unicode="&#xca;" d="M102 0v1229h205v205h103v102h102v102h205v-102h102v-102h103v-205h204v-205h-819v-205h615v-205h-615v-409h819v-205h-1024zM512 1229h205v102h-205v-102z" />
<glyph unicode="&#xcb;" d="M102 0v1229h1024v-205h-819v-205h615v-205h-615v-409h819v-205h-1024zM307 1434v204h205v-204h-205zM717 1434v204h205v-204h-205z" />
<glyph unicode="&#xcc;" horiz-adv-x="819" d="M102 0v205h205v819h-205v205h205v102h-102v103h-103v204h205v-102h103v-102h102v-205h205v-205h-205v-819h205v-205h-615z" />
<glyph unicode="&#xcd;" horiz-adv-x="819" d="M102 0v205h205v819h-205v205h205v205h103v102h102v102h205v-204h-103v-103h-102v-102h205v-205h-205v-819h205v-205h-615z" />
<glyph unicode="&#xce;" horiz-adv-x="819" d="M102 0v205h205v819h-205v410h103v102h102v102h205v-102h102v-102h103v-410h-205v-819h205v-205h-615zM307 1229h205v102h-205v-102z" />
<glyph unicode="&#xcf;" horiz-adv-x="819" d="M102 0v205h205v819h-205v205h615v-205h-205v-819h205v-205h-615zM102 1434v204h205v-204h-205zM512 1434v204h205v-204h-205z" />
<glyph unicode="&#xd0;" d="M102 614v205h205v615h615v-103h102v-102h102v-1024h-102v-103h-102v-102h-615v614h-205zM512 205h307v102h103v819h-103v103h-307v-410h205v-205h-205v-409z" />
<glyph unicode="&#xd1;" d="M102 0v1434h103v102h102v102h307v-102h103v-102h102v102h103v102h204v-204h-102v-103h-102v-102h204v-1229h-204v307h-103v103h-102v102h-103v102h-102v103h-102v102h-103v-819h-205zM307 1126h103v-102h102v-102h102v-103h103v-102h102v-103h103v615h-308v102h-102v103 h-102v-103h-103v-205z" />
<glyph unicode="&#xd2;" d="M102 205v819h103v102h102v103h205v102h-102v103h-103v204h205v-102h102v-102h103v-205h205v-103h102v-102h102v-819h-102v-103h-102v-102h-615v102h-102v103h-103zM307 307h103v-102h409v102h103v615h-103v102h-409v-102h-103v-615z" />
<glyph unicode="&#xd3;" d="M102 205v819h103v102h102v103h205v205h102v102h103v102h205v-204h-103v-103h-102v-102h205v-103h102v-102h102v-819h-102v-103h-102v-102h-615v102h-102v103h-103zM307 307h103v-102h409v102h103v615h-103v102h-409v-102h-103v-615z" />
<glyph unicode="&#xd4;" d="M102 205v819h103v102h102v308h103v102h102v102h205v-102h102v-102h103v-308h102v-102h102v-819h-102v-103h-102v-102h-615v102h-102v103h-103zM307 307h103v-102h409v102h103v615h-103v102h-409v-102h-103v-615zM512 1229h205v102h-205v-102z" />
<glyph unicode="&#xd5;" d="M102 205v819h103v102h102v103h-205v205h103v102h102v102h307v-102h103v-102h102v102h103v102h204v-204h-102v-103h-102v-205h102v-102h102v-819h-102v-103h-102v-102h-615v102h-102v103h-103zM307 307h103v-102h409v102h103v615h-103v102h-409v-102h-103v-615zM307 1229 h307v102h-102v103h-102v-103h-103v-102z" />
<glyph unicode="&#xd6;" d="M102 205v819h103v102h102v103h615v-103h102v-102h102v-819h-102v-103h-102v-102h-615v102h-102v103h-103zM307 307h103v-102h409v102h103v615h-103v102h-409v-102h-103v-615zM307 1434v204h205v-204h-205zM717 1434v204h205v-204h-205z" />
<glyph unicode="&#xd7;" d="M102 205v205h103v102h102v102h103v205h-103v103h-102v102h-103v205h205v-103h103v-102h102v-102h205v102h102v102h103v103h204v-205h-102v-102h-102v-103h-103v-205h103v-102h102v-102h102v-205h-204v102h-103v103h-102v102h-205v-102h-102v-103h-103v-102h-205z" />
<glyph unicode="&#xd8;" d="M102 0v1229h103v102h102v103h819v-1229h-102v-103h-102v-102h-820zM307 614h103v103h102v102h102v103h103v102h102v205h-409v-103h-103v-512zM410 205h409v102h103v512h-103v-102h-102v-103h-103v-102h-102v-102h-102v-205z" />
<glyph unicode="&#xd9;" d="M102 205v1024h205v-922h103v-102h409v102h103v922h204v-1024h-102v-103h-102v-102h-615v102h-102v103h-103zM307 1434v204h205v-102h102v-102h103v-205h-205v102h-102v103h-103z" />
<glyph unicode="&#xda;" d="M102 205v1024h205v-922h103v-102h409v102h103v922h204v-1024h-102v-103h-102v-102h-615v102h-102v103h-103zM512 1229v205h102v102h103v102h205v-204h-103v-103h-102v-102h-205z" />
<glyph unicode="&#xdb;" d="M102 205v1024h205v205h103v102h102v102h205v-102h102v-102h103v-205h204v-1024h-102v-103h-102v-102h-615v102h-102v103h-103zM307 307h103v-102h409v102h103v922h-205v102h-205v-102h-205v-922z" />
<glyph unicode="&#xdc;" d="M102 205v1024h205v-922h103v-102h409v102h103v922h204v-1024h-102v-103h-102v-102h-615v102h-102v103h-103zM307 1434v204h205v-204h-205zM717 1434v204h205v-204h-205z" />
<glyph unicode="&#xdd;" d="M102 819v410h205v-307h103v-103h102v-102h205v102h102v103h103v307h204v-410h-102v-102h-102v-103h-103v-102h-102v-512h-205v512h-102v102h-103v103h-102v102h-103zM512 1229v205h102v102h103v102h205v-204h-103v-103h-102v-102h-205z" />
<glyph unicode="&#xde;" horiz-adv-x="1024" d="M102 0v1434h205v-308h410v-102h102v-102h103v-410h-103v-102h-102v-103h-410v-307h-205zM307 512h307v102h103v205h-103v103h-307v-410z" />
<glyph unicode="&#xdf;" d="M102 0v1229h103v102h102v103h512v-103h103v-102h102v-307h-102v-103h-103v-102h103v-103h102v-102h102v-307h-102v-103h-102v-102h-410v205h307v102h103v103h-103v102h-102v102h-103v308h103v102h102v102h-102v103h-307v-103h-103v-1126h-205z" />
<glyph unicode="&#xe0;" d="M102 0v922h103v102h102v102h103v103h102v102h-102v103h-103v204h205v-102h102v-102h103v-205h102v-103h103v-102h102v-102h102v-922h-204v410h-615v-410h-205zM307 614h615v205h-103v103h-102v102h-205v-102h-102v-103h-103v-205z" />
<glyph unicode="&#xe1;" d="M102 0v922h103v102h102v102h103v103h102v205h102v102h103v102h205v-204h-103v-103h-102v-102h102v-103h103v-102h102v-102h102v-922h-204v410h-615v-410h-205zM307 614h615v205h-103v103h-102v102h-205v-102h-102v-103h-103v-205z" />
<glyph unicode="&#xe2;" d="M102 0v922h103v102h102v102h103v103h-103v205h103v102h102v102h205v-102h102v-102h103v-205h-103v-103h103v-102h102v-102h102v-922h-204v410h-615v-410h-205zM307 614h615v205h-103v103h-102v102h-205v-102h-102v-103h-103v-205zM512 1229h205v102h-205v-102z" />
<glyph unicode="&#xe3;" d="M102 0v922h103v102h102v102h103v103h204v102h-102v103h-102v-103h-103v-102h-205v205h103v102h102v102h307v-102h103v-102h102v102h103v102h204v-204h-102v-103h-102v-102h-103v-103h103v-102h102v-102h102v-922h-204v410h-615v-410h-205zM307 614h615v205h-103v103h-102 v102h-205v-102h-102v-103h-103v-205z" />
<glyph unicode="&#xe4;" d="M102 0v922h103v102h102v102h103v103h409v-103h103v-102h102v-102h102v-922h-204v410h-615v-410h-205zM307 614h615v205h-103v103h-102v102h-205v-102h-102v-103h-103v-205zM307 1434v204h205v-204h-205zM717 1434v204h205v-204h-205z" />
<glyph unicode="&#xe5;" d="M102 0v922h103v102h102v102h103v103h102v102h-102v205h102v102h205v-102h102v-205h-102v-102h102v-103h103v-102h102v-102h102v-922h-204v410h-615v-410h-205zM307 614h615v205h-103v103h-102v102h-205v-102h-102v-103h-103v-205z" />
<glyph unicode="&#xe6;" d="M102 0v1024h103v102h102v103h103v102h102v103h614v-205h-409v-410h307v-205h-307v-409h409v-205h-614v410h-205v-410h-205zM307 614h205v410h-102v-102h-103v-308z" />
<glyph unicode="&#xe7;" d="M102 410v819h103v102h102v103h615v-103h102v-102h102v-205h-204v102h-103v103h-409v-103h-103v-614h103v-102h409v102h103v102h204v-204h-102v-103h-102v-102h-205v-103h102v-204h-102v-103h-307v205h204v102h-102v103h-205v102h-102v103h-103z" />
<glyph unicode="&#xe8;" d="M102 0v1229h410v102h-102v103h-103v204h205v-102h102v-102h103v-205h409v-205h-819v-205h615v-205h-615v-409h819v-205h-1024z" />
<glyph unicode="&#xe9;" d="M102 0v1229h410v205h102v102h103v102h205v-204h-103v-103h-102v-102h409v-205h-819v-205h615v-205h-615v-409h819v-205h-1024z" />
<glyph unicode="&#xea;" d="M102 0v1229h205v205h103v102h102v102h205v-102h102v-102h103v-205h204v-205h-819v-205h615v-205h-615v-409h819v-205h-1024zM512 1229h205v102h-205v-102z" />
<glyph unicode="&#xeb;" d="M102 0v1229h1024v-205h-819v-205h615v-205h-615v-409h819v-205h-1024zM307 1434v204h205v-204h-205zM717 1434v204h205v-204h-205z" />
<glyph unicode="&#xec;" horiz-adv-x="819" d="M102 0v205h205v819h-205v205h205v102h-102v103h-103v204h205v-102h103v-102h102v-205h205v-205h-205v-819h205v-205h-615z" />
<glyph unicode="&#xed;" horiz-adv-x="819" d="M102 0v205h205v819h-205v205h205v205h103v102h102v102h205v-204h-103v-103h-102v-102h205v-205h-205v-819h205v-205h-615z" />
<glyph unicode="&#xee;" horiz-adv-x="819" d="M102 0v205h205v819h-205v410h103v102h102v102h205v-102h102v-102h103v-410h-205v-819h205v-205h-615zM307 1229h205v102h-205v-102z" />
<glyph unicode="&#xef;" horiz-adv-x="819" d="M102 0v205h205v819h-205v205h615v-205h-205v-819h205v-205h-615zM102 1434v204h205v-204h-205zM512 1434v204h205v-204h-205z" />
<glyph unicode="&#xf0;" d="M102 614v205h205v615h615v-103h102v-102h102v-1024h-102v-103h-102v-102h-615v614h-205zM512 205h307v102h103v819h-103v103h-307v-410h205v-205h-205v-409z" />
<glyph unicode="&#xf1;" d="M102 0v1434h103v102h102v102h307v-102h103v-102h102v102h103v102h204v-204h-102v-103h-102v-102h204v-1229h-204v307h-103v103h-102v102h-103v102h-102v103h-102v102h-103v-819h-205zM307 1126h103v-102h102v-102h102v-103h103v-102h102v-103h103v615h-308v102h-102v103 h-102v-103h-103v-205z" />
<glyph unicode="&#xf2;" d="M102 205v819h103v102h102v103h205v102h-102v103h-103v204h205v-102h102v-102h103v-205h205v-103h102v-102h102v-819h-102v-103h-102v-102h-615v102h-102v103h-103zM307 307h103v-102h409v102h103v615h-103v102h-409v-102h-103v-615z" />
<glyph unicode="&#xf3;" d="M102 205v819h103v102h102v103h205v205h102v102h103v102h205v-204h-103v-103h-102v-102h205v-103h102v-102h102v-819h-102v-103h-102v-102h-615v102h-102v103h-103zM307 307h103v-102h409v102h103v615h-103v102h-409v-102h-103v-615z" />
<glyph unicode="&#xf4;" d="M102 205v819h103v102h102v308h103v102h102v102h205v-102h102v-102h103v-308h102v-102h102v-819h-102v-103h-102v-102h-615v102h-102v103h-103zM307 307h103v-102h409v102h103v615h-103v102h-409v-102h-103v-615zM512 1229h205v102h-205v-102z" />
<glyph unicode="&#xf5;" d="M102 205v819h103v102h102v103h-205v205h103v102h102v102h307v-102h103v-102h102v102h103v102h204v-204h-102v-103h-102v-205h102v-102h102v-819h-102v-103h-102v-102h-615v102h-102v103h-103zM307 307h103v-102h409v102h103v615h-103v102h-409v-102h-103v-615zM307 1229 h307v102h-102v103h-102v-103h-103v-102z" />
<glyph unicode="&#xf6;" d="M102 205v819h103v102h102v103h615v-103h102v-102h102v-819h-102v-103h-102v-102h-615v102h-102v103h-103zM307 307h103v-102h409v102h103v615h-103v102h-409v-102h-103v-615zM307 1434v204h205v-204h-205zM717 1434v204h205v-204h-205z" />
<glyph unicode="&#xf7;" d="M102 614v205h1024v-205h-1024zM512 205v205h205v-205h-205zM512 1024v205h205v-205h-205z" />
<glyph unicode="&#xf8;" d="M102 0v1229h103v102h102v103h819v-1229h-102v-103h-102v-102h-820zM307 614h103v103h102v102h102v103h103v102h102v205h-409v-103h-103v-512zM410 205h409v102h103v512h-103v-102h-102v-103h-103v-102h-102v-102h-102v-205z" />
<glyph unicode="&#xf9;" d="M102 205v1024h205v-922h103v-102h409v102h103v922h204v-1024h-102v-103h-102v-102h-615v102h-102v103h-103zM307 1434v204h205v-102h102v-102h103v-205h-205v102h-102v103h-103z" />
<glyph unicode="&#xfa;" d="M102 205v1024h205v-922h103v-102h409v102h103v922h204v-1024h-102v-103h-102v-102h-615v102h-102v103h-103zM512 1229v205h102v102h103v102h205v-204h-103v-103h-102v-102h-205z" />
<glyph unicode="&#xfb;" d="M102 205v1024h205v205h103v102h102v102h205v-102h102v-102h103v-205h204v-1024h-102v-103h-102v-102h-615v102h-102v103h-103zM307 307h103v-102h409v102h103v922h-205v102h-205v-102h-205v-922z" />
<glyph unicode="&#xfc;" d="M102 205v1024h205v-922h103v-102h409v102h103v922h204v-1024h-102v-103h-102v-102h-615v102h-102v103h-103zM307 1434v204h205v-204h-205zM717 1434v204h205v-204h-205z" />
<glyph unicode="&#xfd;" d="M102 819v410h205v-307h103v-103h102v-102h205v102h102v103h103v307h204v-410h-102v-102h-102v-103h-103v-102h-102v-512h-205v512h-102v102h-103v103h-102v102h-103zM512 1229v205h102v102h103v102h205v-204h-103v-103h-102v-102h-205z" />
<glyph unicode="&#xfe;" horiz-adv-x="1024" d="M102 0v1434h205v-308h410v-102h102v-102h103v-410h-103v-102h-102v-103h-410v-307h-205zM307 512h307v102h103v205h-103v103h-307v-410z" />
<glyph unicode="&#xff;" d="M102 819v410h205v-307h103v-103h102v-102h205v102h102v103h103v307h204v-410h-102v-102h-102v-103h-103v-102h-102v-512h-205v512h-102v102h-103v103h-102v102h-103zM307 1434v204h205v-204h-205zM717 1434v204h205v-204h-205z" />
<glyph unicode="&#x152;" d="M102 205v1024h103v102h102v103h819v-205h-409v-410h307v-205h-307v-409h409v-205h-819v102h-102v103h-103zM307 307h103v-102h102v1024h-102v-103h-103v-819z" />
<glyph unicode="&#x153;" d="M102 205v1024h103v102h102v103h819v-205h-409v-410h307v-205h-307v-409h409v-205h-819v102h-102v103h-103zM307 307h103v-102h102v1024h-102v-103h-103v-819z" />
<glyph unicode="&#x178;" d="M102 819v410h205v-307h103v-103h102v-102h205v102h102v103h103v307h204v-410h-102v-102h-102v-103h-103v-102h-102v-512h-205v512h-102v102h-103v103h-102v102h-103zM307 1434v204h205v-204h-205zM717 1434v204h205v-204h-205z" />
<glyph unicode="&#x2c6;" horiz-adv-x="819" d="M102 1229v205h103v102h102v102h205v-102h102v-102h103v-205h-205v102h-205v-102h-205z" />
<glyph unicode="&#x2dc;" d="M102 1229v205h103v102h102v102h307v-102h103v-102h102v102h103v102h204v-204h-102v-103h-102v-102h-308v102h-102v103h-102v-103h-103v-102h-205z" />
<glyph unicode="&#x2000;" horiz-adv-x="819" />
<glyph unicode="&#x2001;" horiz-adv-x="1638" />
<glyph unicode="&#x2002;" horiz-adv-x="819" />
<glyph unicode="&#x2003;" horiz-adv-x="1638" />
<glyph unicode="&#x2004;" horiz-adv-x="546" />
<glyph unicode="&#x2005;" horiz-adv-x="409" />
<glyph unicode="&#x2006;" horiz-adv-x="273" />
<glyph unicode="&#x2007;" horiz-adv-x="273" />
<glyph unicode="&#x2008;" horiz-adv-x="204" />
<glyph unicode="&#x2009;" horiz-adv-x="327" />
<glyph unicode="&#x200a;" horiz-adv-x="91" />
<glyph unicode="&#x2010;" horiz-adv-x="1024" d="M102 614v205h820v-205h-820z" />
<glyph unicode="&#x2011;" horiz-adv-x="1024" d="M102 614v205h820v-205h-820z" />
<glyph unicode="&#x2012;" horiz-adv-x="1024" d="M102 614v205h820v-205h-820z" />
<glyph unicode="&#x2013;" horiz-adv-x="819" d="M102 614v205h615v-205h-615z" />
<glyph unicode="&#x2014;" d="M102 614v205h1024v-205h-1024z" />
<glyph unicode="&#x2018;" horiz-adv-x="614" d="M102 819v410h103v102h102v103h205v-205h-102v-103h-103v-102h205v-205h-410z" />
<glyph unicode="&#x2019;" horiz-adv-x="614" d="M102 819v205h103v102h102v103h-205v205h410v-410h-102v-102h-103v-103h-205z" />
<glyph unicode="&#x201c;" d="M102 819v410h103v102h102v103h205v-205h-102v-103h-103v-102h205v-205h-410zM717 819v410h102v102h103v103h204v-205h-102v-103h-102v-102h204v-205h-409z" />
<glyph unicode="&#x201d;" d="M102 819v205h103v102h102v103h-205v205h410v-410h-102v-102h-103v-103h-205zM717 819v205h102v102h103v103h-205v205h409v-410h-102v-102h-102v-103h-205z" />
<glyph unicode="&#x2022;" horiz-adv-x="614" d="M102 512v410h410v-410h-410z" />
<glyph unicode="&#x202f;" horiz-adv-x="327" />
<glyph unicode="&#x2039;" horiz-adv-x="819" d="M102 614v205h103v103h102v102h103v102h102v103h205v-1024h-205v102h-102v103h-103v102h-102v102h-103z" />
<glyph unicode="&#x203a;" horiz-adv-x="819" d="M102 205v1024h205v-103h103v-102h102v-102h102v-103h103v-205h-103v-102h-102v-102h-102v-103h-103v-102h-205z" />
<glyph unicode="&#x205f;" horiz-adv-x="409" />
<glyph unicode="&#x20ac;" d="M102 614v205h205v410h103v102h102v103h410v-103h102v-102h102v-205h-204v102h-103v103h-205v-103h-102v-307h410v-205h-410v-307h102v-102h205v102h103v103h204v-205h-102v-103h-102v-102h-410v102h-102v103h-103v409h-205z" />
<glyph unicode="&#xe000;" horiz-adv-x="1433" d="M0 0v1434h1434v-1434h-1434z" />
</font>
</defs>
</svg>
